<svg id="filled_outline" height="512" viewBox="0 0 64 64" width="512" xmlns="http://www.w3.org/2000/svg" data-name="filled outline"><path d="m15 36-9.53846 3.97436a4 4 0 0 0 -2.46154 3.69231v11.33333h6v7h20v-7h6v-11.33333a4 4 0 0 0 -2.46154-3.69231l-9.53846-3.97436" fill="#47b164"/><path d="m3 55h6v7h-6z" fill="#ffd7a8"/><path d="m29 55h6v7h-6z" fill="#ffd7a8"/><rect fill="#eee" height="28" rx="2" width="30" x="31" y="33"/><path d="m23 31v6a4 4 0 0 1 -4 4 4 4 0 0 1 -4-4v-6z" fill="#f2cca0"/><path d="m30 10v13c0 5.07513-4.92487 10-11 10s-11-4.92487-11-10v-13z" fill="#ffd7a8"/><path d="m8 13v-5a3 3 0 0 1 3-3h2a1 1 0 0 1 1 1 3 3 0 0 1 3-3h11a2 2 0 0 1 2 2v8l-2.26385-1.50923a2 2 0 0 0 -1.59447-.27619l-6.65661 1.66415a2 2 0 0 1 -.97014 0l-6.65661-1.66415a2 2 0 0 0 -1.59447.27619z" fill="#626262"/><rect fill="#ffaf45" height="4" rx="1" width="4" x="35" y="37"/><path d="m37 49h5a0 0 0 0 1 0 0v4a0 0 0 0 1 0 0h-5a1 1 0 0 1 -1-1v-2a1 1 0 0 1 1-1z" fill="#e6c762"/><path d="m42.60608 47.74025 6.20526-2.6594a1.00013 1.00013 0 0 1 .39392-.08085h2.79474a1 1 0 0 1 1 1v10a1 1 0 0 1 -1 1h-2.79474a1.00013 1.00013 0 0 1 -.39392-.08085l-6.20526-2.6594a1 1 0 0 1 -.60608-.91915v-4.6812a1 1 0 0 1 .60608-.91915z" fill="#ffdd6d"/><path d="m53 48h2a2 2 0 0 1 2 2v2a2 2 0 0 1 -2 2h-2a0 0 0 0 1 0 0v-6a0 0 0 0 1 0 0z" fill="#e6c762"/><circle cx="14" cy="20" r="1"/><path d="m12 15h4v2h-4z"/><circle cx="24" cy="20" r="1"/><path d="m22 15h4v2h-4z"/><path d="m18 21h2v4h-2z"/><path d="m23.12305 27.85645-1.03125-1.7129a6.10485 6.10485 0 0 1 -6.1836 0l-1.0312 1.7129a8.00457 8.00457 0 0 0 8.2461 0z"/><path d="m8 62h2v-14h-2v6h-4v-10.333a2.99271 2.99271 0 0 1 1.84668-2.76953l8.20184-3.41778a4.972 4.972 0 0 0 9.903.00006l2.66375 1.1101.76954-1.8457-3.38481-1.41059v-2.43885a12.0058 12.0058 0 0 0 7-10.89471v-17a3.00328 3.00328 0 0 0 -3-3h-11a4.00193 4.00193 0 0 0 -3.499 2.06348 2.01771 2.01771 0 0 0 -.501-.06348h-2a4.004 4.004 0 0 0 -4 4v14a12.0058 12.0058 0 0 0 7 10.89471v2.43879l-8.92285 3.71826a4.98586 4.98586 0 0 0 -3.07715 4.61524v18.333h2v-6h4zm14-25a3 3 0 0 1 -6 0v-3.39484a11.59444 11.59444 0 0 0 6 0zm-13-29a2.0026 2.0026 0 0 1 2-2h2v2h2v-2a2.0026 2.0026 0 0 1 2-2h11a1.00067 1.00067 0 0 1 1 1v6.13184l-.708-.47168a2.99508 2.99508 0 0 0 -2.39258-.415l-6.65528 1.66304a1.00349 1.00349 0 0 1 -.4873.001l-6.65625-1.66406a2.96084 2.96084 0 0 0 -.72657-.08985 2.9991 2.9991 0 0 0 -1.665.50391l-.70902.47264zm0 14v-8.465l1.81934-1.2127a1.00994 1.00994 0 0 1 .79687-.1377l6.65723 1.665a3.03885 3.03885 0 0 0 1.4541-.001l6.65625-1.66406a1.00226 1.00226 0 0 1 .79785.13867l1.81836 1.21195v8.46484a10 10 0 0 1 -20 0z"/><path d="m38 42a2.0026 2.0026 0 0 0 2-2v-2a2.0026 2.0026 0 0 0 -2-2h-2a2.0026 2.0026 0 0 0 -2 2v2a2.0026 2.0026 0 0 0 2 2zm-2-4h2l.002 2h-2.002z"/><path d="m42 36h2v2h-2z"/><path d="m46 36h8v2h-8z"/><path d="m56 36h2v2h-2z"/><path d="m42 40h2v2h-2z"/><path d="m46 40h8v2h-8z"/><path d="m56 40h2v2h-2z"/><path d="m59 32h-26a3.00328 3.00328 0 0 0 -3 3v24a3.00328 3.00328 0 0 0 3 3h26a3.00328 3.00328 0 0 0 3-3v-24a3.00328 3.00328 0 0 0 -3-3zm1 27a1.00067 1.00067 0 0 1 -1 1h-26a1.00067 1.00067 0 0 1 -1-1v-24a1.00067 1.00067 0 0 1 1-1h26a1.00067 1.00067 0 0 1 1 1z"/><path d="m55 47h-1v-1a2.0026 2.0026 0 0 0 -2-2h-2.79492a1.99863 1.99863 0 0 0 -.78711.16211l-6.20508 2.65918a1.9851 1.9851 0 0 0 -1.09051 1.17871h-4.12238a2.0026 2.0026 0 0 0 -2 2v2a2.0026 2.0026 0 0 0 2 2v4h2v-4h2.12262a1.9874 1.9874 0 0 0 1.09027 1.17871l6.20117 2.6582a2.01544 2.01544 0 0 0 .791.16309h2.79494a2.0026 2.0026 0 0 0 2-2v-1h1a3.00328 3.00328 0 0 0 3-3v-2a3.00328 3.00328 0 0 0 -3-3zm-14 5h-4v-2h4zm1.71729-4-.11084-.25977.11126.25977zm9.28271 8h-2.79492l-6.20508-2.65918v-4.68164l6.20508-2.65918h2.79492zm4-4a1.00067 1.00067 0 0 1 -1 1h-1v-4h1a1.00067 1.00067 0 0 1 1 1z"/></svg>