<?xml version="1.0" encoding="UTF-8" standalone="no"?>
<svg
   xmlns:dc="http://purl.org/dc/elements/1.1/"
   xmlns:cc="http://creativecommons.org/ns#"
   xmlns:rdf="http://www.w3.org/1999/02/22-rdf-syntax-ns#"
   xmlns:svg="http://www.w3.org/2000/svg"
   xmlns="http://www.w3.org/2000/svg"
   id="svg8"
   version="1.1"
   viewBox="0 0 148.16666 101.6"
   height="384"
   width="560">
  <title
     id="title4508">Bragle Screens - News</title>
  <defs
     id="defs2" />
  <metadata
     id="metadata5">
    <rdf:RDF>
      <cc:Work
         rdf:about="">
        <dc:format>image/svg+xml</dc:format>
        <dc:type
           rdf:resource="http://purl.org/dc/dcmitype/StillImage" />
        <dc:title>Bragle Screens - News</dc:title>
        <dc:creator>
          <cc:Agent>
            <dc:title>Beagle Bros</dc:title>
          </cc:Agent>
        </dc:creator>
        <dc:publisher>
          <cc:Agent>
            <dc:title>Openclipart.org</dc:title>
          </cc:Agent>
        </dc:publisher>
        <dc:identifier>https://openclipart.org/</dc:identifier>
        <dc:source></dc:source>
        <dc:contributor>
          <cc:Agent>
            <dc:title>Arvin61r58
https://openclipart.org/user-detail/Arvin61r58</dc:title>
          </cc:Agent>
        </dc:contributor>
        <dc:subject>
          <rdf:Bag>
            <rdf:li>cartoon</rdf:li>
            <rdf:li>newspaper</rdf:li>
            <rdf:li>caption</rdf:li>
          </rdf:Bag>
        </dc:subject>
        <dc:description>News clip=art from Beagle Screens</dc:description>
        <cc:license
           rdf:resource="http://creativecommons.org/publicdomain/zero/1.0/" />
      </cc:Work>
      <cc:License
         rdf:about="http://creativecommons.org/publicdomain/zero/1.0/">
        <cc:permits
           rdf:resource="http://creativecommons.org/ns#Reproduction" />
        <cc:permits
           rdf:resource="http://creativecommons.org/ns#Distribution" />
        <cc:permits
           rdf:resource="http://creativecommons.org/ns#DerivativeWorks" />
      </cc:License>
    </rdf:RDF>
  </metadata>
  <g
     transform="translate(-30.916669,-97.699994)"
     id="layer1">
    <g
       style="stroke-width:2.66666651"
       transform="matrix(0.37500003,0,0,0.37500003,62.761165,92.120526)"
       id="g4496">
      <path
         id="path4506"
         d="m 88.648005,279.4619 v -0.70555 H 85.120227 81.59245 v -0.70556 -0.70556 h -2.822222 -2.822222 v -0.70555 -0.70556 h -3.527778 -3.527777 v -0.70555 -0.70556 h -3.527778 -3.527777 v -0.70555 -0.70556 h -2.822222 -2.822222 v -0.70555 -0.70556 h -3.527778 -3.527777 v -0.70555 -0.70556 h -3.527778 -3.527777 v -0.70556 -0.70555 H 39.25912 36.436898 v -0.70556 -0.70555 H 32.90912 29.381343 v -0.70556 -0.70555 h -2.822222 -2.822222 v -0.70556 -0.70555 h -3.527778 -3.527777 v -0.70556 -0.70556 H 13.859122 11.0369 v -0.70555 -0.70556 H 8.214678 5.392456 v -0.70555 -0.70556 H 1.8646785 -1.663099 v -0.70555 -0.70556 h -2.822222 -2.822222 v -0.70555 -0.70556 h -3.527778 -3.527777 v -0.70556 -0.70555 h -2.822222 -2.822222 v -0.70556 -0.70555 h -2.822222 -2.822222 v -0.70556 -0.70555 h -3.527778 -3.527777 v -0.70556 -0.70555 h -2.822222 -2.822222 v -0.70556 -0.70556 h -3.527778 -3.527777 v -0.70555 -0.70556 h -2.822222 -2.822222 v -0.70555 -0.70556 h -1.411111 -1.411111 v -34.57222 -34.57222 h 1.411111 1.411111 v -0.70555 -0.70556 h 1.411111 1.411111 v -0.70555 -0.70556 h 1.411111 1.411111 v -0.70556 -0.70555 h 0.705555 0.705556 v -2.11667 -2.11666 h -0.352778 -0.352778 v -0.70556 -0.70556 h -1.058333 -1.058333 v -0.70555 -0.70556 h -0.705556 -0.705555 v -0.70555 -0.70556 h 0.705555 0.705556 v -0.70555 -0.70556 h 0.705555 0.705556 v -1.41111 -1.41111 h -0.705556 -0.705555 v -0.70556 -0.70555 h 0.705555 0.705556 v -0.70556 -0.70555 h 1.058333 1.058333 v -2.82222 -2.82223 h -0.352777 -0.352778 v -1.41111 -1.41111 h 0.705555 0.705556 v -0.70555 -0.70556 h 0.705555 0.705556 v -0.70556 -0.70555 h 0.705555 0.705556 v -0.70556 -0.70555 h 0.705555 0.705556 v -2.82222 -2.82223 h -0.705556 -0.705555 v -1.41111 -1.41111 h -0.705556 -0.705555 v -0.70555 -0.70556 h -0.352778 -0.352778 v -0.70555 -0.70556 h -1.058333 -1.058333 v -0.70556 -0.70555 h -0.705556 -0.705555 v -0.70556 -0.70555 h -0.705556 -0.705555 v -0.70556 -0.70555 h -1.411111 -1.411111 v -0.70556 -0.70555 h -1.411111 -1.411111 v -1.41112 -1.41111 h -0.705556 -0.705555 V 102.36747 78.378578 h 1.411111 1.411111 v 0.705555 0.705556 h 3.527777 3.527778 v 0.705555 0.705556 h 4.233333 4.233333 v 0.705555 0.705556 h 3.527777 3.527778 v 0.705556 0.705555 h 4.233333 4.233333 v 0.705556 0.705555 h 3.527777 3.527778 v 0.705556 0.705555 h 3.5277775 3.5277775 v 0.705556 0.705555 h 4.233333 4.233333 v 0.705556 0.705555 H 6.0980115 9.625789 v 0.705556 0.705555 h 4.233333 4.233333 v 0.705556 0.705555 h 3.527777 3.527778 v 0.705556 0.705555 h 4.233333 4.233333 v 0.705556 0.705555 h 3.527777 3.527778 v 0.705556 0.705555 h 3.527777 3.527778 v 0.705556 0.705555 h 4.233333 4.233333 v 0.705556 0.705555 h 3.527777 3.527778 v 0.705557 0.70555 h 4.233333 4.233333 v 0.70556 0.70556 h 3.527777 3.527778 v 0.70555 0.70556 h 31.750002 31.74999 v -0.70556 -0.70555 h 19.05 19.05 v -0.70556 -0.70556 h 12.7 12.7 v -0.70555 -0.705557 h 13.05277 13.05278 v 11.994447 11.99444 h -0.35278 -0.35277 v 19.05 19.05 h -8.46667 -8.46667 v 0.70555 0.70556 h -2.82222 -2.82222 v 0.70556 0.70555 h -1.41111 -1.41111 v 0.70556 0.70555 h -1.41111 -1.41111 v 0.70556 0.70555 h -0.70556 -0.70556 v 2.11667 2.11667 h 0.70556 0.70556 v 0.70555 0.70556 h -1.41112 -1.41111 v 0.70555 0.70556 h -0.70555 -0.70556 v 0.70555 0.70556 h -0.70555 -0.70556 v 0.70556 0.70555 h -0.70555 -0.70556 v 0.70556 0.70555 h -0.70555 -0.70556 v 2.82222 2.82223 h 0.70556 0.70555 v 0.70555 0.70556 h 0.70556 0.70555 v 0.70555 0.70556 h 2.82222 2.82223 v 0.70555 0.70556 h -0.70556 -0.70556 v 2.82222 2.82222 h 0.70556 0.70556 v 0.70556 0.70555 h 1.05833 1.05833 v 0.70556 0.70556 h 1.76389 1.76389 v 0.70555 0.70556 h 2.11667 2.11666 v 0.70555 0.70556 h -0.70555 -0.70556 v 2.11666 2.11667 h 0.70556 0.70555 v 0.70556 0.70555 h 1.41111 1.41111 v 0.70556 0.70555 h 1.41112 1.41111 v 0.70556 0.70555 h 6.35 6.35 v 28.92778 28.92778 h -6.70278 -6.70278 v 0.70555 0.70556 h -4.58611 -4.58611 v 0.70555 0.70556 h -7.05556 -7.05555 v 0.70555 0.70556 h -5.29167 -5.29166 v 0.70556 0.70555 h -5.99722 -5.99723 v 0.70556 0.70555 h -9.17222 -9.17222 v 0.70556 0.70555 h -8.46667 -8.46666 v 0.70556 0.70555 h -6.35 -6.35 v 0.70556 0.70555 h -4.93889 -4.93889 v 0.70556 0.70556 h -4.93889 -4.93888 v 0.70555 0.70556 h -7.761115 -7.76111 z M 236.81466,255.47301 v -0.70555 h 1.41111 1.41111 v -0.70556 -0.70555 h 1.41111 1.41111 v -0.70556 -0.70555 h 1.41111 1.41112 v -0.70556 -0.70556 h -1.41112 -1.41111 v -0.70555 -0.70556 h 1.41111 1.41112 v -0.70555 -0.70556 h -1.41112 -1.41111 v -0.70555 -0.70556 h -0.70555 -0.70556 v -0.70555 -0.70556 h 0.70556 0.70555 v -0.70555 -0.70556 h -1.41111 -1.41111 v -0.70556 -0.70555 h -1.41111 -1.41111 v -0.70556 -0.70555 h -1.41111 -1.41111 v -0.70556 -0.70555 h 1.41111 1.41111 v -0.70556 -0.70555 h -1.41111 -1.41111 v -0.70556 -0.70556 h 1.41111 1.41111 v -0.70555 -0.70556 h -1.41111 -1.41111 v -0.70555 -0.70556 h 1.41111 1.41111 v 0.70556 0.70555 h 2.11667 2.11666 v 0.70556 0.70555 h 0.70556 0.70555 v -0.70555 -0.70556 h 2.11667 2.11667 v -0.70555 -0.70556 h 0.70555 0.70556 v -0.70555 -0.70556 h 1.41111 1.41111 v -0.70555 -0.70556 h 1.41111 1.41111 v -0.70556 -0.70555 h -1.41111 -1.41111 v -0.70556 -0.70555 h 1.41111 1.41111 v -0.70556 -0.70555 h -1.41111 -1.41111 v -0.70556 -0.70555 h 1.41111 1.41111 v -0.70556 -0.70555 h -1.41111 -1.41111 v -0.70556 -0.70556 h -0.70556 -0.70555 v -0.70555 -0.70556 h -1.41111 -1.41111 v -0.70555 -0.70556 h -2.11667 -2.11667 v -0.70555 -0.70556 h -0.70555 -0.70556 v 0.70556 0.70555 h -2.11666 -2.11667 v 0.70556 0.70555 h -1.41111 -1.41111 v -0.70555 -0.70556 h 1.41111 1.41111 v -0.70555 -0.70556 h -1.41111 -1.41111 v -0.70555 -0.70556 h 1.41111 1.41111 v -0.70556 -0.70555 h -1.41111 -1.41111 v -0.70556 -0.70555 h 1.41111 1.41111 v -0.70556 -0.70555 h -1.41111 -1.41111 v -0.70556 -0.70555 h 1.41111 1.41111 v -0.70556 -0.70556 h -1.41111 -1.41111 v -0.70555 -0.70556 h 2.11666 2.11667 v 0.70556 0.70555 h 1.41111 1.41111 v 0.70556 0.70556 h 1.41111 1.41111 v 0.70555 0.70556 h 0.70556 0.70556 v 0.70555 0.70556 h -0.70556 -0.70556 v 0.70555 0.70556 h 1.41112 1.41111 v 0.70555 0.70556 h 1.41111 1.41111 v 0.70556 0.70555 h 1.41111 1.41111 v 0.70556 0.70555 h 0.70556 0.70555 v 0.70556 0.70555 h -0.70555 -0.70556 v 0.70556 0.70555 h 1.41111 1.41111 v 0.70556 0.70556 h 0.70556 0.70555 v 0.70555 0.70556 h -0.70555 -0.70556 v 0.70555 0.70556 h 0.70556 0.70555 v 0.70555 0.70556 h -0.70555 -0.70556 v 0.70555 0.70556 h 0.70556 0.70555 v 0.70555 0.70556 h -0.70555 -0.70556 v 0.70556 0.70555 h 1.41111 1.41111 v 0.70556 0.70555 h -1.41111 -1.41111 v 0.70556 0.70555 h 1.41111 1.41111 v 0.70556 0.70555 h -1.41111 -1.41111 v 0.70556 0.70556 h -1.41111 -1.41111 v 0.70555 0.70556 h -1.41111 -1.41111 v 0.70555 0.70556 h 0.70555 0.70556 v 0.70555 0.70556 h -0.70556 -0.70555 v 0.70555 0.70556 h -1.41111 -1.41111 v 0.70556 0.70555 h 1.41111 1.41111 v 0.70556 0.70555 h -1.41111 -1.41111 v 0.70556 0.70555 h 1.41111 1.41111 v 0.70556 0.70555 h 1.41111 1.41111 v 0.70556 0.70555 h 1.41111 1.41111 v 0.70556 0.70556 h 1.41111 1.41111 v 0.70555 0.70556 h 0.70556 0.70556 v -0.70556 -0.70555 h 2.46944 2.46944 v 0.70555 0.70556 h -1.41111 -1.41111 v 0.70555 0.70556 h 1.41111 1.41111 v 0.70555 0.70556 h -2.46944 -2.46944 v -0.70556 -0.70555 h -0.70556 -0.70556 v 0.70555 0.70556 h -2.11666 -2.11667 v -0.70556 -0.70555 h -0.70555 -0.70556 v 0.70555 0.70556 h -2.11667 -2.11666 v -0.70556 -0.70555 h -0.70556 -0.70555 v 0.70555 0.70556 h -2.11667 -2.11667 v -0.70556 -0.70555 h -0.70555 -0.70556 v 0.70555 0.70556 h -2.11666 -2.11667 z m 8.46667,-1.41111 v -0.70555 h -0.70556 -0.70556 v 0.70555 0.70556 h 0.70556 0.70556 z m 5.64444,0 v -0.70555 h -0.70556 -0.70555 v 0.70555 0.70556 h 0.70555 0.70556 z m 5.64444,0 v -0.70555 h -0.70555 -0.70556 v 0.70555 0.70556 h 0.70556 0.70555 z m -8.46666,-1.41111 v -0.70555 h -0.70556 -0.70555 v 0.70555 0.70556 h 0.70555 0.70556 z m 5.64444,0 v -0.70555 h -0.70555 -0.70556 v 0.70555 0.70556 h 0.70556 0.70555 z m -2.82222,-1.41111 v -0.70556 h -0.70556 -0.70555 v 0.70556 0.70556 h 0.70555 0.70556 z m -2.82222,-1.41111 v -0.70556 h -0.70556 -0.70555 v 0.70556 0.70555 h 0.70555 0.70556 z m -2.82222,-4.23333 v -0.70556 h -0.70556 -0.70556 v 0.70556 0.70555 h 0.70556 0.70556 z m 0,-2.82223 v -0.70555 h -0.70556 -0.70556 v 0.70555 0.70556 h 0.70556 0.70556 z m -2.82223,-1.41111 v -0.70555 h -0.70555 -0.70556 v 0.70555 0.70556 h 0.70556 0.70555 z m 5.64445,0 v -0.70555 h -0.70556 -0.70555 v 0.70555 0.70556 h 0.70555 0.70556 z m -8.46667,-1.41111 v -0.70555 h -0.70555 -0.70556 v 0.70555 0.70556 h 0.70556 0.70555 z m 5.64445,0 v -0.70555 h -0.70556 -0.70556 v 0.70555 0.70556 h 0.70556 0.70556 z m -2.82223,-1.41111 v -0.70555 h -0.70555 -0.70556 v 0.70555 0.70556 h 0.70556 0.70555 z m 5.64445,0 v -0.70555 h -0.70556 -0.70555 v 0.70555 0.70556 h 0.70555 0.70556 z m -8.46667,-1.41111 v -0.70556 h -0.70555 -0.70556 v 0.70556 0.70556 h 0.70556 0.70555 z m 5.64445,0 v -0.70556 h -0.70556 -0.70556 v 0.70556 0.70556 h 0.70556 0.70556 z m 5.64444,0 v -0.70556 h -0.70556 -0.70555 v 0.70556 0.70556 h 0.70555 0.70556 z m -2.82222,-1.41111 v -0.70556 h -0.70556 -0.70555 v 0.70556 0.70555 h 0.70555 0.70556 z m 5.64444,0 v -0.70556 h -0.70555 -0.70556 v 0.70556 0.70555 h 0.70556 0.70555 z m -2.82222,-1.41111 v -0.70556 h -0.70556 -0.70555 v 0.70556 0.70555 h 0.70555 0.70556 z m 2.82222,-1.41111 v -0.70556 h -0.70555 -0.70556 v 0.70556 0.70555 h 0.70556 0.70555 z m -2.82222,-12.7 v -0.70556 h -0.70556 -0.70555 v 0.70556 0.70555 h 0.70555 0.70556 z m -2.82222,-1.41111 v -0.70556 h -0.70556 -0.70555 v 0.70556 0.70555 h 0.70555 0.70556 z m -8.46667,-1.41111 v -0.70556 h -0.70555 -0.70556 v 0.70556 0.70555 h 0.70556 0.70555 z m 5.64445,0 v -0.70556 h -0.70556 -0.70556 v 0.70556 0.70555 h 0.70556 0.70556 z m -2.82223,-1.41112 v -0.70555 h -0.70555 -0.70556 v 0.70555 0.70556 h 0.70556 0.70555 z m -2.82222,-1.41111 v -0.70555 h -0.70555 -0.70556 v 0.70555 0.70556 h 0.70556 0.70555 z m 2.82222,-1.41111 v -0.70555 h -0.70555 -0.70556 v 0.70555 0.70556 h 0.70556 0.70555 z m -2.82222,-1.41111 v -0.70555 h -0.70555 -0.70556 v 0.70555 0.70556 h 0.70556 0.70555 z m 31.04444,12.7 v -0.70555 h -2.11666 -2.11667 v -0.70556 -0.70556 h -1.41111 -1.41111 v -0.70555 -0.70556 h -1.41111 -1.41111 v -0.70555 -0.70556 h -0.70556 -0.70555 v -0.70555 -0.70556 h -0.70556 -0.70556 v -0.70555 -0.70556 h -1.41111 -1.41111 v -0.70556 -0.70555 h -0.70555 -0.70556 v -0.70556 -0.70555 h -0.70555 -0.70556 v -0.70556 -0.70555 h -0.70555 -0.70556 v -0.70556 -0.70555 h -0.70556 -0.70555 v -0.70556 -0.70556 h -0.70556 -0.70555 v -0.70555 -0.70556 h -0.70556 -0.70555 v -4.23333 -4.23333 h -0.70556 -0.70555 v -0.70556 -0.70555 h -0.70556 -0.70556 v -0.70556 -0.70555 h -1.76388 -1.76389 v -0.70556 -0.70556 h 1.05833 1.05833 v -0.70555 -0.70556 h 1.41111 1.41112 v -0.70555 -0.70556 h 0.70555 0.70556 v -0.70555 -0.70556 h 0.70555 0.70556 v -3.52778 -3.52777 h -0.70556 -0.70555 v -0.70556 -0.70556 h 2.11666 2.11667 v 0.70556 0.70556 h 0.70556 0.70555 v 0.70555 0.70556 h 1.41111 1.41111 v 0.70555 0.70556 h 1.41111 1.41111 v 0.70555 0.70556 h 0.70556 0.70556 v 0.70555 0.70556 h 1.41111 1.41111 v 0.70556 0.70555 h 0.70555 0.70556 v 0.70556 0.70555 h 1.41111 1.41111 v 0.70556 0.70555 h 1.41111 1.41111 v 0.70556 0.70555 h 0.70556 0.70555 v 0.70556 0.70556 h 0.70556 0.70556 v 0.70555 0.70556 h 1.41111 1.41111 v 0.70555 0.70556 h 0.70555 0.70556 v 0.70555 0.70556 h 0.70555 0.70556 v 0.70555 0.70556 h 1.41111 1.41111 v 0.70556 0.70555 h 0.70556 0.70555 v -1.41111 -1.41111 h -0.70555 -0.70556 v -1.41111 -1.41111 h -0.70555 -0.70556 v -0.70556 -0.70555 h -1.41111 -1.41111 v -0.70556 -0.70556 h -0.70556 -0.70555 v -0.70555 -0.70556 h -0.70556 -0.70555 v -0.70555 -0.70556 h -0.70556 -0.70555 v -0.70555 -0.70556 h -1.41112 -1.41111 v -0.70555 -0.70556 h -0.70555 -0.70556 v -0.70556 -0.70555 h -1.41111 -1.41111 v -0.70556 -0.70555 h -1.41111 -1.41111 v -0.70556 -0.70555 h -0.70556 -0.70555 v -0.70556 -0.70555 h -1.41111 -1.41112 v -0.70556 -0.70556 h -1.41111 -1.41111 v -0.70555 -0.70556 h -0.70555 -0.70556 v -0.70555 -0.70556 h -0.70555 -0.70556 v -0.70555 -0.70556 h -0.70555 -0.70556 v -0.70555 -0.70556 h -0.70556 -0.70555 v -0.70555 -0.70556 h 0.70555 0.70556 v -0.70556 -0.70555 h 1.41111 1.41111 v -1.41111 -1.41111 h 1.41111 1.41111 v -0.70556 -0.70555 h 1.41111 1.41112 v -0.70556 -0.70556 h 1.41111 1.41111 v -1.41111 -1.41111 h 1.41111 1.41111 v -0.70555 -0.70556 h 2.11667 2.11666 v 0.70556 0.70555 h 1.05834 1.05833 v 0.70556 0.70555 h 0.70556 0.70555 v 0.70556 0.70555 h 0.70556 0.70555 v 0.70556 0.70556 h 0.35278 0.35278 v 0.70555 0.70556 h 0.70555 0.70556 v 0.70555 0.70556 h 0.70555 0.70556 v 0.70555 0.70556 h 0.70555 0.70556 v 0.70555 0.70556 h 1.05833 1.05834 v 0.70556 0.70555 h 0.70555 0.70556 v 0.70556 0.70555 h 0.70555 0.70556 v 0.70556 0.70555 h 0.70555 0.70556 v 0.70556 0.70555 h -0.35278 -0.35278 v 0.70556 0.70555 h 0.70556 0.70556 v 0.70556 0.70556 h 0.70555 0.70556 v 0.70555 0.70556 h 0.70555 0.70556 v 1.41111 1.41111 h 1.05833 1.05833 v 0.70555 0.70556 h 0.70556 0.70555 v 1.41111 1.41111 h 0.70556 0.70556 v 0.70556 0.70555 h 0.35277 0.35278 v 0.70556 0.70555 h 0.35278 0.35278 v 0.70556 0.70556 h 0.35277 0.35278 v 0.70555 0.70556 h 0.70556 0.70555 v 1.41111 1.41111 h 0.70556 0.70555 v 1.41111 1.41111 h 1.05834 1.05833 v 5.64444 5.64445 h -1.05833 -1.05834 v 1.41111 1.41111 h -0.70555 -0.70556 v 0.70556 0.70555 h -0.70555 -0.70556 v 0.70556 0.70555 h -1.41111 -1.41111 v 0.70556 0.70555 h -1.41111 -1.41111 v 0.70556 0.70556 h -1.41111 -1.41111 v 0.70555 0.70556 h -8.46667 -8.46667 z m -50.79999,-19.75555 v -0.70556 h -1.41111 -1.41111 v -0.70555 -0.70556 h -0.70556 -0.70556 v -0.70556 -0.70555 h 0.70556 0.70556 v -0.70556 -0.70555 h 1.41111 1.41111 v -0.70556 -0.70555 h 9.87777 9.87778 v 0.70555 0.70556 h 0.70556 0.70555 v 2.11666 2.11667 h -0.70555 -0.70556 v 0.70556 0.70555 h -9.87778 -9.87777 z m -12.7,-11.28889 v -0.70556 h -0.70556 -0.70555 v -0.70555 -0.70556 h 0.70555 0.70556 v -1.41111 -1.41111 h 2.11667 2.11666 v -0.70556 -0.70555 h 6.35 6.35 v -0.70556 -0.70555 h 9.17222 9.17222 v 0.70555 0.70556 h 0.70556 0.70555 v 1.41111 1.41111 h -0.70555 -0.70556 v 0.70556 0.70555 h -1.41111 -1.41111 v 0.70556 0.70555 h -3.52778 -3.52777 v 0.70556 0.70555 h -12.7 -12.7 z m -7.05556,-9.87778 v -0.70556 h -0.70555 -0.70556 v -1.41111 -1.41111 h 0.70556 0.70555 v -0.70555 -0.70556 h 1.41111 1.41112 v -0.70555 -0.70556 h 2.11666 2.11667 v -0.70555 -0.70556 h 12.7 12.7 v -0.70556 -0.70555 h 5.64444 5.64444 v 0.70555 0.70556 h 0.70556 0.70556 v 2.11667 2.11666 h -1.41112 -1.41111 v 0.70556 0.70555 h -2.82222 -2.82222 v 0.70556 0.70555 h -7.76111 -7.76111 v 0.70556 0.70556 h -10.58333 -10.58334 z m -268.816641,-8.46667 v -0.70555 h -0.705556 -0.705556 v -1.41111 -1.41111 h 0.705556 0.705556 v -0.70556 -0.70555 h 0.705555 0.705555 v -0.70556 -0.70556 h 8.466666 8.466666 v 0.70556 0.70556 h 0.352778 0.352778 v 0.70555 0.70556 h 0.705555 0.705556 v 0.70555 0.70556 h -0.705556 -0.705555 v 0.70555 0.70556 h -1.411111 -1.411111 v 0.70555 0.70556 h -8.113888 -8.113888 z m 277.283311,-2.82222 v -0.70555 h -0.70556 -0.70555 v -0.70556 -0.70555 h 0.70555 0.70556 v -0.70556 -0.70556 h 0.70556 0.70555 v -0.70555 -0.70556 h 0.70556 0.70555 v -0.70555 -0.70556 h 3.52778 3.52778 v -0.70555 -0.70556 h 10.58333 10.58333 v 0.70556 0.70555 h 0.70556 0.70555 v 2.11667 2.11667 h -0.70555 -0.70556 v 0.70555 0.70556 h -4.23333 -4.23333 v 0.70555 0.70556 h -11.28889 -11.28889 z m 39.51111,-1.41111 v -0.70555 h -1.41111 -1.41111 v -0.70556 -0.70556 h 1.41111 1.41111 v -0.70555 -0.70556 h -1.41111 -1.41111 v -0.70555 -0.70556 h 1.41111 1.41111 v -0.70555 -0.70556 h 1.41111 1.41111 v -0.70555 -0.70556 h 1.41111 1.41111 v -0.70556 -0.70555 h 1.41111 1.41111 v -0.70556 -0.70555 h -1.41111 -1.41111 v -0.70556 -0.70555 h 1.41111 1.41111 v -0.70556 -0.70555 h -1.41111 -1.41111 v -0.70556 -0.70555 h 1.41111 1.41111 v -0.70556 -0.70556 h -1.41111 -1.41111 v -0.70555 -0.70556 h -1.41111 -1.41111 v -0.70555 -0.70556 h -1.41111 -1.41111 v -0.70555 -0.70556 h -1.41111 -1.41111 v -0.70555 -0.70556 h -0.70556 -0.70556 v 0.70556 0.70555 h -1.41111 -1.41111 v 0.70556 0.70555 h -1.41111 -1.41111 v 0.70556 0.70555 h -2.11667 -2.11666 v -0.70555 -0.70556 h 1.41111 1.41111 v -0.70555 -0.70556 h -1.41111 -1.41111 v -0.70555 -0.70556 h 2.11666 2.11667 v -0.70556 -0.70555 h 0.70556 0.70555 v -0.70556 -0.70555 h 1.41111 1.41111 v -0.70556 -0.70555 h 1.41111 1.41112 v -0.70556 -0.70555 h -1.41112 -1.41111 v -0.70556 -0.70556 h 2.11667 2.11667 v 0.70556 0.70556 h 0.70555 0.70556 v 0.70555 0.70556 h -0.70556 -0.70555 v 0.70555 0.70556 h 1.41111 1.41111 v 0.70555 0.70556 h 1.41111 1.41111 v 0.70555 0.70556 h 0.70556 0.70555 v -0.70556 -0.70555 h 2.11667 2.11666 v 0.70555 0.70556 h 0.70556 0.70556 v -0.70556 -0.70555 h 1.41111 1.41111 v -0.70556 -0.70555 h 1.41111 1.41111 v -0.70556 -0.70555 h -0.70556 -0.70555 v -0.70556 -0.70555 h 1.41111 1.41111 v 0.70555 0.70556 h 1.41111 1.41111 v 0.70555 0.70556 h 1.41111 1.41112 v 0.70555 0.70556 h 1.41111 1.41111 v 0.70555 0.70556 h 1.41111 1.41111 v 0.70556 0.70555 h 0.70555 0.70556 v -0.70555 -0.70556 h 1.76389 1.76389 v 0.70556 0.70555 h -0.70556 -0.70555 v 0.70556 0.70555 h -1.76389 -1.76389 v 0.70556 0.70555 h -2.11667 -2.11666 v -0.70555 -0.70556 h -1.41111 -1.41112 v -0.70555 -0.70556 h -1.41111 -1.41111 v -0.70555 -0.70556 h -0.70555 -0.70556 v 0.70556 0.70555 h -1.41111 -1.41111 v 0.70556 0.70555 h -1.41111 -1.41111 v 0.70556 0.70555 h -1.41111 -1.41112 v 0.70556 0.70555 h 0.70556 0.70556 v 0.70556 0.70556 h -0.70556 -0.70556 v 0.70555 0.70556 h 0.70556 0.70556 v 0.70555 0.70556 h -0.70556 -0.70556 v 0.70555 0.70556 h 1.41112 1.41111 v 0.70555 0.70556 h 0.70555 0.70556 v 0.70555 0.70556 h -1.41111 -1.41111 v 0.70556 0.70555 h -1.41112 -1.41111 v 0.70556 0.70555 h -0.70555 -0.70556 v 0.70556 0.70555 h -1.41111 -1.41111 v 0.70556 0.70555 h -1.41111 -1.41111 v 0.70556 0.70556 h 0.70555 0.70556 v 0.70555 0.70556 h -1.41111 -1.41111 z m 2.82222,-4.23333 v -0.70556 h -0.70556 -0.70555 v 0.70556 0.70555 h 0.70555 0.70556 z m 2.82222,-1.41111 v -0.70556 h -0.70555 -0.70556 v 0.70556 0.70555 h 0.70556 0.70555 z m 2.82222,-1.41111 v -0.70556 h -0.70555 -0.70556 v 0.70556 0.70555 h 0.70556 0.70555 z m 2.82223,-1.41112 v -0.70555 h -0.70556 -0.70556 v 0.70555 0.70556 h 0.70556 0.70556 z m -2.82223,-9.87777 v -0.70556 h -0.70555 -0.70556 v 0.70556 0.70555 h 0.70556 0.70555 z m -2.82222,-1.41111 v -0.70556 h -0.70555 -0.70556 v 0.70556 0.70555 h 0.70556 0.70555 z m 5.64445,0 v -0.70556 h -0.70556 -0.70556 v 0.70556 0.70555 h 0.70556 0.70556 z m 16.93333,0 v -0.70556 h -0.70556 -0.70555 v 0.70556 0.70555 h 0.70555 0.70556 z m -36.68889,-1.41111 v -0.70556 h -0.70555 -0.70556 v 0.70556 0.70555 h 0.70556 0.70555 z m 11.28889,0 v -0.70556 h -0.70556 -0.70555 v 0.70556 0.70555 h 0.70555 0.70556 z m 5.64444,0 v -0.70556 h -0.70555 -0.70556 v 0.70556 0.70555 h 0.70556 0.70555 z m 5.64445,0 v -0.70556 h -0.70556 -0.70555 v 0.70556 0.70555 h 0.70555 0.70556 z m 11.28889,0 v -0.70556 h -0.70556 -0.70555 v 0.70556 0.70555 h 0.70555 0.70556 z m -31.04445,-1.41112 v -0.70555 h -0.70555 -0.70556 v 0.70555 0.70556 h 0.70556 0.70555 z m 5.64445,0 v -0.70555 h -0.70556 -0.70555 v 0.70555 0.70556 h 0.70555 0.70556 z m 16.93333,0 v -0.70555 h -0.70556 -0.70555 v 0.70555 0.70556 h 0.70555 0.70556 z m 5.64444,0 v -0.70555 h -0.70555 -0.70556 v 0.70555 0.70556 h 0.70556 0.70555 z m -25.39999,-1.41111 v -0.70555 h -0.70556 -0.70556 v 0.70555 0.70556 h 0.70556 0.70556 z m 22.57777,0 v -0.70555 h -0.70555 -0.70556 v 0.70555 0.70556 h 0.70556 0.70555 z m -333.72775,18.34445 v -0.70556 h -1.411111 -1.41111 v -0.70555 -0.70556 h -0.352778 -0.352778 v -0.70556 -0.70555 h -0.705556 -0.705555 v -2.11667 -2.11666 h 0.705555 0.705556 v -0.70556 -0.70555 h 1.411111 1.411111 v 0.70555 0.70556 h 1.058333 1.058334 v 0.70555 0.70556 h 0.352777 0.352778 v 0.70555 0.70556 h 1.411111 1.411111 v 0.70555 0.70556 h 5.644444 5.644444 v 1.41111 1.41111 h -0.705556 -0.705555 v 0.70556 0.70555 h -7.408333 -7.408333 z m 299.86109,-4.23334 v -0.70555 h 2.11666 2.11667 v 0.70555 0.70556 h -2.11667 -2.11666 z m -291.394424,-2.82222 v -0.70555 h -1.411111 -1.411111 v -0.70556 -0.70555 h -1.411111 -1.411111 v -1.41112 -1.41111 h -1.41111 -1.411112 v -1.41111 -1.41111 h -0.705555 -0.705556 v -0.70555 -0.70556 h -0.705555 -0.705555 v -2.82222 -2.82222 h 0.705555 0.705555 v -0.70556 -0.70556 h 1.058334 1.058333 v 0.70556 0.70556 h 0.705556 0.705555 v 0.70555 0.70556 h 1.411111 1.411111 v 0.70555 0.70556 h 1.411111 1.411111 v 0.70555 0.70556 h 1.411111 1.411111 v 0.70555 0.70556 h 1.411111 1.411111 v 0.70556 0.70555 h 1.411111 1.411111 v 0.70556 0.70555 h 1.411111 1.411111 v 2.11667 2.11667 h -0.705556 -0.705555 v 0.70555 0.70556 h -0.705556 -0.705555 v 0.70555 0.70556 h -3.880555 -3.880556 z m 291.394424,0 v -0.70555 h 1.41111 1.41111 v 0.70555 0.70556 h -1.41111 -1.41111 z m 0,-2.82222 v -0.70556 h 1.41111 1.41111 v 0.70556 0.70556 h -1.41111 -1.41111 z m -285.044424,-8.46667 v -0.70555 h -1.411111 -1.411111 v -0.70556 -0.70555 h -1.411111 -1.411111 v -0.70556 -0.70555 h -1.411111 -1.411111 v -0.70556 -0.70556 h -1.411111 -1.411111 v -0.70555 -0.70556 h -0.705556 -0.705555 v -0.70555 -0.70556 h -1.058333 -1.058334 v -0.70555 -0.70556 h -0.705555 -0.705556 v -1.41111 -1.41111 h -0.705555 -0.705555 v -2.11667 -2.11666 h 0.705555 0.705555 v -0.70556 -0.70555 h 4.586111 4.586111 v 0.70555 0.70556 h 1.411111 1.411111 v 0.70555 0.70556 h 1.411111 1.411111 v 0.70555 0.70556 h 1.411111 1.411111 v 0.70555 0.70556 h 1.763889 1.763888 v 0.70556 0.70555 h 0.352778 0.352778 v 0.70556 0.70555 h 0.705555 0.705556 v 1.41111 1.41111 h 0.705555 0.705556 v 2.11667 2.11667 h -0.705556 -0.705555 v 0.70555 0.70556 h -0.705556 -0.705555 v 0.70555 0.70556 h -2.822222 -2.822222 z M 242.4591,139.76191 v -0.70556 h -0.70555 -0.70556 v -0.70555 -0.70556 h 0.70556 0.70555 v -0.70555 -0.70556 h -1.41111 -1.41111 v -0.70555 -0.70556 h -1.41111 -1.41111 v -0.70556 -0.70555 h -1.41111 -1.41111 v -0.70556 -0.70555 h 1.41111 1.41111 v -0.70556 -0.70555 h -1.41111 -1.41111 v -0.70556 -0.70555 h 1.41111 1.41111 v -0.70556 -0.70556 h -1.41111 -1.41111 v -0.70555 -0.70556 h 2.11666 2.11667 v 0.70556 0.70555 h 1.41111 1.41111 v 0.70556 0.70556 h 1.41111 1.41111 v 0.70555 0.70556 h 1.41112 1.41111 v 0.70555 0.70556 h 1.41111 1.41111 v 0.70555 0.70556 h -1.41111 -1.41111 v 0.70555 0.70556 h 0.70555 0.70556 v 0.70556 0.70555 h -0.70556 -0.70555 v 0.70556 0.70555 h -1.41111 -1.41112 v 0.70556 0.70555 h 1.41112 1.41111 v 0.70556 0.70555 h -2.11667 -2.11667 z m 2.82223,-4.23333 v -0.70556 h -0.70556 -0.70556 v 0.70556 0.70555 h 0.70556 0.70556 z m -2.82223,-1.41112 v -0.70555 h -0.70555 -0.70556 v 0.70555 0.70556 h 0.70556 0.70555 z m -2.82222,-1.41111 v -0.70555 h -0.70555 -0.70556 v 0.70555 0.70556 h 0.70556 0.70555 z m 5.64445,0 v -0.70555 h -0.70556 -0.70556 v 0.70555 0.70556 h 0.70556 0.70556 z m -2.82223,-1.41111 v -0.70555 h -0.70555 -0.70556 v 0.70555 0.70556 h 0.70556 0.70555 z m -2.82222,-1.41111 v -0.70555 h -0.70555 -0.70556 v 0.70555 0.70556 h 0.70556 0.70555 z M 145.09244,93.195244 v -6.35 h 4.23334 4.23333 v -0.705555 -0.705556 h 4.23333 4.23334 v -0.705555 -0.705556 h 2.82222 2.82222 v -0.705555 -0.705556 h 2.11667 2.11666 V 81.906355 81.2008 h 1.41111 1.41112 v -0.705556 -0.705555 h 1.41111 1.41111 v -0.705556 -0.705555 h 1.41111 1.41111 v -0.705556 -0.705555 h 0.70556 0.70555 v -0.705556 -0.705555 h 0.70556 0.70555 V 74.8508 74.145245 h 1.41111 1.41111 v -0.705556 -0.705555 h 0.70556 0.70555 v -0.705556 -0.705555 h 0.70556 0.70556 V 69.206356 67.08969 h -0.70556 -0.70556 v -0.705556 -0.705556 h -3.52777 -3.52778 v 0.705556 0.705556 h -1.41111 -1.41111 v 0.705555 0.705556 h -1.41111 -1.41111 v 0.705555 0.705556 h -1.41112 -1.41111 v 0.705555 0.705556 h -0.70555 -0.70556 v 1.411111 1.411111 h 0.70556 0.70555 v -0.705556 -0.705555 h 1.41111 1.41112 v -0.705556 -0.705555 h 0.70555 0.70556 v -0.705556 -0.705555 h 2.11666 2.11667 v -0.705556 -0.705555 h 2.11667 2.11666 v 1.411111 1.411111 h -0.70555 -0.70556 v 0.705555 0.705556 h -1.41111 -1.41111 v 0.705555 0.705556 h -0.70556 -0.70555 v 0.705555 0.705556 h -1.41111 -1.41111 v 0.705555 0.705556 h -0.70556 -0.70555 v 0.705555 0.705556 h -2.11667 -2.11667 v 0.705555 0.705556 h -2.11666 -2.11667 v 0.705555 0.705556 h -3.52778 -3.52778 v 0.705555 0.705556 h -4.23333 -4.23333 v 0.705556 0.705555 h -4.58611 -4.58611 V 83.317467 82.611911 H 140.50633 139.448 V 81.2008 79.789689 h 0.70556 0.70555 v -0.705556 -0.705555 h 0.70556 0.70555 v -0.705556 -0.705555 h 1.41111 1.41111 v -0.705556 -0.705555 h 1.41112 1.41111 V 74.8508 74.145245 h 0.70555 0.70556 v -0.705556 -0.705555 h 1.41111 1.41111 v -0.705556 -0.705555 h 1.41111 1.41111 v -0.705556 -0.705555 h 1.41111 1.41111 v -0.705556 -0.705555 h 2.11667 2.11667 V 67.795245 67.08969 h 1.41111 1.41111 v -0.705556 -0.705556 h 2.82222 2.82222 v -0.705555 -0.705556 h 2.82222 2.82223 v -0.705555 -0.705556 h 2.11666 2.11667 v -0.705555 -0.705556 h 0.70556 0.70555 V 60.73969 60.034134 h -3.52778 -3.52777 v 0.705556 0.705555 h -2.82223 -2.82222 v 0.705556 0.705555 h -2.11666 -2.11667 v 0.705556 0.705555 h -2.11667 -2.11666 v 0.705556 0.705555 h -1.41112 -1.41111 v 0.705556 0.705556 h -1.41111 -1.41111 v 0.705555 0.705556 h -1.41111 -1.41111 v 0.705555 0.705556 h -1.41111 -1.41111 v 0.705555 0.705556 h -1.41111 -1.41111 v 0.705555 0.705556 h -2.82223 -2.82222 v -0.705556 -0.705555 h -0.70555 -0.70556 v -0.705556 -0.705555 h -0.70555 -0.70556 v -0.705556 -0.705555 h -2.82222 -2.82222 v 0.705555 0.705556 h -0.70556 -0.70556 v 0.705555 0.705556 h -0.70555 -0.70556 v 2.116666 2.116667 h 0.70556 0.70555 V 74.8508 74.145245 h 0.70556 0.70556 v -1.411111 -1.411111 h 2.11666 2.11667 v 0.705555 0.705556 h 0.70555 0.70556 v 0.705555 0.705556 h 0.70556 0.70555 v 0.705555 0.705556 h -0.70555 -0.70556 v 0.705555 0.705556 h -0.70556 -0.70555 v 0.705555 0.705556 h -2.46945 -2.46944 v -0.705556 -0.705555 h -1.76389 -1.76389 v -0.705556 -0.705555 h -0.70555 -0.70556 v -3.527778 -3.527777 h 1.05834 1.05833 V 67.795245 67.08969 h 0.70555 0.70556 v -0.705556 -0.705556 h 5.29167 5.29166 v 0.705556 0.705556 h 0.70556 0.70555 v 0.705555 0.705556 h 1.41111 1.41111 v 0.705555 0.705556 h 0.70556 0.70556 V 68.500801 67.08969 h 0.70555 0.70556 v -2.116667 -2.116667 h 0.70555 0.70556 v -1.411111 -1.411111 h 0.70555 0.70556 v -1.411111 -1.411111 h 0.70555 0.70556 V 55.800801 54.38969 h 0.70556 0.70555 v -0.705555 -0.705556 h 0.70556 0.70555 v -0.705555 -0.705556 h 0.70556 0.70555 v -1.411111 -1.411111 h 0.70556 0.70555 V 48.03969 47.334135 h 1.05834 1.05833 v -0.705556 -0.705555 h 0.70556 0.70555 v -0.705556 -0.705555 h 0.35278 0.35278 v -0.705556 -0.705555 h 0.70555 0.70556 v -0.705556 -0.705555 h 0.70555 0.70556 V 40.984135 40.27858 h 0.70555 0.70556 v -0.705556 -0.705555 h 0.70556 0.70555 v -0.705556 -0.705555 h 1.05833 1.05834 v -0.705556 -0.705555 h 0.70555 0.70556 v -0.705556 -0.705555 h 0.35278 0.35277 V 33.92858 33.223025 h 1.41111 1.41112 v -0.705556 -0.705556 h 0.70555 0.70556 v -0.705555 -0.705556 h 1.41111 1.41111 v -0.705555 -0.705556 h 1.41111 1.41111 V 28.284136 27.57858 h 2.11667 2.11666 v -0.705555 -0.705556 h 2.82223 2.82222 v -0.705555 -0.705556 h 7.76111 7.76111 v 0.705556 0.705555 h 4.23333 4.23333 v 0.705556 0.705555 h 1.41112 1.41111 v 0.705556 0.705555 h 0.70555 0.70556 v 0.705556 0.705555 h 1.05833 1.05833 v 0.705556 0.705555 h 0.70556 0.70556 v 0.705556 0.705556 h 0.70555 0.70556 v 0.705555 0.705556 h 0.70555 0.70556 v 0.705555 0.705556 h 0.35278 0.35277 v 1.411111 1.411111 h 0.70556 0.70555 v 1.411111 1.411111 h 0.70556 0.70555 v 2.116666 2.116667 h 1.05834 1.05833 v 1.411111 1.411111 h -1.05833 -1.05834 v 0.705556 0.705555 h -0.70555 -0.70556 v 0.705556 0.705555 h -0.70555 -0.70556 v 4.233333 4.233333 h -0.70555 -0.70556 v 2.822222 2.822222 h -0.70555 -0.70556 v 6.35 6.35 h 2.11667 2.11666 v -0.705556 -0.705555 h 0.70556 0.70555 v -0.705556 -0.705555 h 0.70556 0.70556 V 74.8508 74.145245 h 1.41111 1.41111 v -0.705556 -0.705555 h 1.41111 1.41111 v -0.705556 -0.705555 h 4.93889 4.93889 v 0.705555 0.705556 h 1.41111 1.41111 v 1.411111 1.411111 h 1.05833 1.05834 v 0.705555 0.705556 h 0.70555 0.70556 v 2.822222 2.822222 h -0.70556 -0.70555 v 1.411111 1.411111 h -1.05834 -1.05833 v 0.705556 0.705555 h -0.70556 -0.70555 v 0.705556 0.705555 h -1.41111 -1.41111 v 0.705556 0.705555 h -2.11667 -2.11667 v 0.705556 0.705555 h -4.23333 -4.23333 v -0.705555 -0.705556 h -1.41111 -1.41112 v -0.705555 -0.705556 h -2.11666 -2.11667 v 0.705556 0.705555 h 0.70556 0.70555 v 1.411111 1.411111 h 0.35278 0.35278 v 2.116667 2.116666 H 215.29522 202.948 v 0.705556 0.705555 h -12.34723 -12.34722 v 0.705556 0.705555 H 161.673 145.09244 Z m 40.92222,-1.411111 v -0.705556 h 2.82223 2.82222 v -0.705555 -0.705556 h 1.41111 1.41111 v -0.705555 -0.705556 h 1.41111 1.41111 V 87.5508 86.845244 h 1.41111 1.41111 v -0.705555 -0.705556 h 0.70556 0.70555 v -0.705555 -0.705556 h 0.70556 0.70556 V 82.611911 81.2008 h 2.82222 2.82222 v 0.705555 0.705556 h 1.41111 1.41111 v 0.705556 0.705555 h 0.70556 0.70555 v -2.116667 -2.116666 h -0.70555 -0.70556 v -0.705556 -0.705555 h -0.70555 -0.70556 v -0.705556 -0.705555 h -1.41111 -1.41111 v -0.705556 -0.705555 h -1.41111 -1.41111 V 74.8508 74.145245 h -1.41111 -1.41112 v -0.705556 -0.705555 h -2.11666 -2.11667 v -0.705556 -0.705555 h -2.11666 -2.11667 v 0.705555 0.705556 h 0.70555 0.70556 v 0.705555 0.705556 h 1.41111 1.41111 v 0.705555 0.705556 h 0.70556 0.70555 v 0.705555 0.705556 h 0.70556 0.70555 v 1.411111 1.411111 h -0.70555 -0.70556 v 0.705555 0.705556 h -0.70555 -0.70556 v 0.705555 0.705556 h -0.70555 -0.70556 v 0.705556 0.705555 h -0.70555 -0.70556 v 0.705556 0.705555 h -1.41111 -1.41111 v 0.705556 0.705555 h -1.41111 -1.41111 v 0.705556 0.705555 h -2.82223 -2.82222 v 0.705556 0.705555 h -7.76111 -7.76111 v 0.705556 0.705555 h 1.41111 1.41111 v 0.705556 0.705555 h 7.76111 7.76111 z m 46.56667,-7.761111 v -1.411111 h 0.70555 0.70556 V 81.906355 81.2008 h 1.41111 1.41111 v -0.705556 -0.705555 h 1.41111 1.41111 v -0.705556 -0.705555 h 2.82222 2.82223 v 0.705555 0.705556 h 0.70555 0.70556 v 1.411111 1.411111 h 0.70555 0.70556 v -2.822222 -2.822222 h -0.70556 -0.70555 v -0.705556 -0.705555 h -4.93889 -4.93889 v 0.705555 0.705556 h -1.41111 -1.41111 v 0.705555 0.705556 h -1.41111 -1.41111 v 1.411111 1.411111 h -0.70556 -0.70556 v 2.116667 2.116666 h 1.41112 1.41111 z M 202.948,63.561912 v -0.705556 h 1.41111 1.41111 v -1.411111 -1.411111 h 0.70555 0.70556 v -1.411111 -1.411111 h 2.11667 2.11666 v -0.705555 -0.705556 h 2.11667 2.11666 V 55.095246 54.38969 h -8.46666 -8.46667 v -2.116666 -2.116667 h 0.70556 0.70555 V 48.03969 45.923024 h 0.70556 0.70555 v -2.116667 -2.116666 h -0.70555 -0.70556 v 0.705555 0.705556 h -0.70555 -0.70556 v 0.705555 0.705556 h -0.70555 -0.70556 v 1.411111 1.411111 h -0.70555 -0.70556 v 1.411111 1.411111 h -0.70555 -0.70556 v 2.116667 2.116666 h -1.41111 -1.41111 v 1.411111 1.411111 h 3.52778 3.52777 v 2.116667 2.116666 h 0.70556 0.70555 v 0.705556 0.705555 h 0.70556 0.70555 v 0.705556 0.705555 h 0.70556 0.70556 z M 167.67022,60.73969 v -0.705556 h 1.41111 1.41111 v -0.705555 -0.705556 h 0.70556 0.70555 v -1.411111 -1.411111 h 2.11667 2.11667 V 55.095246 54.38969 h 1.41111 1.41111 v -0.705555 -0.705556 h -6.35 -6.35 v -2.822222 -2.822222 h 0.70556 0.70555 v -2.116667 -2.116666 h 0.70556 0.70555 v -0.705556 -0.705555 h 0.70556 0.70555 V 40.984135 40.27858 h -0.70555 -0.70556 v 0.705555 0.705556 h -0.70555 -0.70556 v 0.705555 0.705556 h -0.70555 -0.70556 v 0.705555 0.705556 h -0.70556 -0.70555 v 0.705555 0.705556 h -0.70556 -0.70555 v 1.411111 1.411111 h -0.70556 -0.70555 v 2.116667 2.116666 h -2.11667 -2.11667 v 1.411111 1.411111 h 2.82223 2.82222 v 2.116667 2.116666 h 0.70555 0.70556 v 0.705556 0.705555 h 1.41111 1.41111 z"
         style="fill:#fefefd;stroke-width:2.66666627" />
      <path
         id="path4504"
         d="m 241.04799,255.47301 v -0.70555 h 0.70556 0.70555 v 0.70555 0.70556 h -0.70555 -0.70556 z m 5.64445,0 v -0.70555 h 0.70555 0.70556 v 0.70555 0.70556 h -0.70556 -0.70555 z m 5.64444,0 v -0.70555 h 0.70556 0.70555 v 0.70555 0.70556 h -0.70555 -0.70556 z m 5.64444,0 v -0.70555 h 0.70556 0.70556 v 0.70555 0.70556 h -0.70556 -0.70556 z m -14.11111,-1.41111 v -0.70555 h 0.70556 0.70556 v 0.70555 0.70556 h -0.70556 -0.70556 z m 5.64445,0 v -0.70555 h 0.70555 0.70556 v 0.70555 0.70556 h -0.70556 -0.70555 z m 5.64444,0 v -0.70555 h 0.70556 0.70555 v 0.70555 0.70556 h -0.70555 -0.70556 z m -8.46666,-1.41111 v -0.70555 h 0.70555 0.70556 v 0.70555 0.70556 h -0.70556 -0.70555 z m 5.64444,0 v -0.70555 h 0.70556 0.70555 v 0.70555 0.70556 h -0.70555 -0.70556 z m 5.64444,0 v -0.70555 h 0.70556 0.70556 v 0.70555 0.70556 h -0.70556 -0.70556 z m -15.52222,-1.41111 v -0.70556 h 1.41111 1.41112 v 0.70556 0.70556 h -1.41112 -1.41111 z m 7.05556,0 v -0.70556 h 0.70555 0.70556 v 0.70556 0.70556 h -0.70556 -0.70555 z m -2.82222,-1.41111 v -0.70556 h 0.70555 0.70556 v 0.70556 0.70555 h -0.70556 -0.70555 z m -4.23334,-1.41111 v -0.70556 h 1.41111 1.41112 v 0.70556 0.70555 h -1.41112 -1.41111 z m 4.23334,-1.41111 v -0.70556 h 1.41111 1.41111 v 0.70556 0.70555 h -1.41111 -1.41111 z m -2.82223,-1.41111 v -0.70556 h 0.70556 0.70556 v 0.70556 0.70555 h -0.70556 -0.70556 z m -4.23333,-1.41111 v -0.70556 h -1.41111 -1.41111 v -0.70556 -0.70555 h -1.41111 -1.41111 v -0.70556 -0.70555 h 1.41111 1.41111 v 0.70555 0.70556 h 1.41111 1.41111 v 0.70555 0.70556 h 1.41111 1.41111 v 0.70556 0.70555 h -1.41111 -1.41111 z m 7.05556,0 v -0.70556 h 1.41111 1.41111 v 0.70556 0.70555 h -1.41111 -1.41111 z m -2.82223,-1.41112 v -0.70555 h 0.70556 0.70556 v 0.70555 0.70556 h -0.70556 -0.70556 z m -2.82222,-1.41111 v -0.70555 h 0.70556 0.70555 v 0.70555 0.70556 h -0.70555 -0.70556 z m 5.64445,0 v -0.70555 h 0.70555 0.70556 v 0.70555 0.70556 h -0.70556 -0.70555 z m -8.46667,-1.41111 v -0.70555 h 0.70556 0.70555 v 0.70555 0.70556 h -0.70555 -0.70556 z m 5.64444,0 v -0.70555 h 0.70556 0.70556 v 0.70555 0.70556 h -0.70556 -0.70556 z m 5.64445,0 v -0.70555 h 1.41111 1.41111 v 0.70555 0.70556 h -1.41111 -1.41111 z m -15.52222,-1.41111 v -0.70555 h 1.41111 1.41111 v 0.70555 0.70556 h -1.41111 -1.41111 z m 7.05555,0 v -0.70555 h 0.70556 0.70555 v 0.70555 0.70556 h -0.70555 -0.70556 z m 5.64445,0 v -0.70555 h 0.70555 0.70556 v 0.70555 0.70556 h -0.70556 -0.70555 z m -8.46667,-1.41111 v -0.70556 h 0.70556 0.70555 v 0.70556 0.70556 h -0.70555 -0.70556 z m 5.64444,0 v -0.70556 h 0.70556 0.70556 v 0.70556 0.70556 h -0.70556 -0.70556 z m 5.64445,0 v -0.70556 h 0.70555 0.70556 v 0.70556 0.70556 h -0.70556 -0.70555 z m 5.64444,0 v -0.70556 h 1.41111 1.41111 v 0.70556 0.70556 h -1.41111 -1.41111 z m -21.16666,-1.41111 v -0.70556 h 1.41111 1.41111 v 0.70556 0.70555 h -1.41111 -1.41111 z m 7.05555,0 v -0.70556 h 0.70556 0.70555 v 0.70556 0.70555 h -0.70555 -0.70556 z m 5.64445,0 v -0.70556 h 0.70555 0.70556 v 0.70556 0.70555 h -0.70556 -0.70555 z m 5.64444,0 v -0.70556 h 0.70556 0.70555 v 0.70556 0.70555 h -0.70555 -0.70556 z m -2.82222,-1.41111 v -0.70556 h 0.70555 0.70556 v 0.70556 0.70555 h -0.70556 -0.70555 z m 5.64444,0 v -0.70556 h 1.41111 1.41111 v 0.70556 0.70555 h -1.41111 -1.41111 z m -21.16666,-2.11667 v -1.41111 h 0.70555 0.70556 v 1.41111 1.41111 h -0.70556 -0.70555 z m 18.34444,0.70556 v -0.70556 h 0.70556 0.70555 v 0.70556 0.70555 h -0.70555 -0.70556 z m 2.82222,-1.41111 v -0.70556 h 1.41111 1.41111 v 0.70556 0.70555 h -1.41111 -1.41111 z m -4.23333,-1.41112 v -0.70555 h 1.41111 1.41111 v 0.70555 0.70556 h -1.41111 -1.41111 z m 0,-2.82222 v -0.70555 h 1.41111 1.41111 v 0.70555 0.70556 h -1.41111 -1.41111 z m 0,-2.82222 v -0.70555 h 1.41111 1.41111 v 0.70555 0.70556 h -1.41111 -1.41111 z m -16.93333,-2.82222 v -0.70556 h 0.70555 0.70556 v 0.70556 0.70555 h -0.70556 -0.70555 z m 18.34444,0 v -0.70556 h 1.41111 1.41111 v 0.70556 0.70555 h -1.41111 -1.41111 z m -2.82222,-1.41111 v -0.70556 h 0.70555 0.70556 v 0.70556 0.70555 h -0.70556 -0.70555 z m -15.52222,-1.41111 v -0.70556 h 1.41111 1.41111 v 0.70556 0.70555 h -1.41111 -1.41111 z m 7.05555,0 v -0.70556 h 0.70556 0.70555 v 0.70556 0.70555 h -0.70555 -0.70556 z m 5.64445,0 v -0.70556 h 0.70555 0.70556 v 0.70556 0.70555 h -0.70556 -0.70555 z m -8.46667,-1.41111 v -0.70556 h 0.70556 0.70555 v 0.70556 0.70555 h -0.70555 -0.70556 z m 5.64444,0 v -0.70556 h 0.70556 0.70556 v 0.70556 0.70555 h -0.70556 -0.70556 z m -9.87777,-1.41112 v -0.70555 h 1.41111 1.41111 v 0.70555 0.70556 h -1.41111 -1.41111 z m 7.05555,0 v -0.70555 h 0.70556 0.70555 v 0.70555 0.70556 h -0.70555 -0.70556 z m 5.64445,0 v -0.70555 h -1.41111 -1.41112 v -0.70556 -0.70555 h 1.41112 1.41111 v 0.70555 0.70556 h 1.41111 1.41111 v 0.70555 0.70556 h -1.41111 -1.41111 z m -8.46667,-1.41111 v -0.70555 h 0.70556 0.70555 v 0.70555 0.70556 h -0.70555 -0.70556 z m -4.23333,-1.41111 v -0.70555 h 1.41111 1.41111 v 0.70555 0.70556 h -1.41111 -1.41111 z m 7.05555,0 v -0.70555 h 0.70556 0.70555 v 0.70555 0.70556 h -0.70555 -0.70556 z m -2.82222,-1.41111 v -0.70555 h 0.70556 0.70555 v 0.70555 0.70556 h -0.70555 -0.70556 z m -4.23333,-1.41111 v -0.70556 h 1.41111 1.41111 v 0.70556 0.70556 h -1.41111 -1.41111 z m 4.23333,-1.41111 v -0.70556 h 1.41111 1.41111 v 0.70556 0.70555 h -1.41111 -1.41111 z m 42.33333,-5.64444 v -0.70556 h 0.70556 0.70555 v 0.70556 0.70555 h -0.70555 -0.70556 z m -35.27777,-32.45556 v -0.70555 h 1.41111 1.41111 v 0.70555 0.70556 h -1.41111 -1.41111 z m 0,-2.82222 v -0.70556 h 1.41111 1.41111 v 0.70556 0.70555 h -1.41111 -1.41111 z m 4.23333,-1.41111 v -0.70556 h 0.70555 0.70556 v 0.70556 0.70555 h -0.70556 -0.70555 z m -4.23333,-1.41111 v -0.70556 h 1.41111 1.41111 v 0.70556 0.70555 h -1.41111 -1.41111 z m 7.05555,0 v -0.70556 h 0.70556 0.70555 v 0.70556 0.70555 h -0.70555 -0.70556 z m 2.82222,-1.41111 v -0.70556 h 0.70556 0.70555 v 0.70556 0.70555 h -0.70555 -0.70556 z m 2.82222,-1.41112 v -0.70555 h 0.70556 0.70556 v 0.70555 0.70556 h -0.70556 -0.70556 z m -4.23333,-1.41111 v -0.70555 h 1.41111 1.41111 v 0.70555 0.70556 h -1.41111 -1.41111 z m -19.75555,-1.41111 v -0.70555 h 0.70555 0.70556 v 0.70555 0.70556 h -0.70556 -0.70555 z m 23.98888,0 v -0.70555 h 1.41112 1.41111 v 0.70555 0.70556 h -1.41111 -1.41112 z m -4.23333,-1.41111 v -0.70555 h 1.41111 1.41111 v 0.70555 0.70556 h -1.41111 -1.41111 z m -19.75555,-1.41111 v -0.70555 h 0.70555 0.70556 v 0.70555 0.70556 h -0.70556 -0.70555 z m 19.75555,-1.41111 v -0.70556 h 1.41111 1.41111 v 0.70556 0.70556 h -1.41111 -1.41111 z m -19.75555,-1.41111 v -0.70556 h 2.11666 2.11667 v 0.70556 0.70555 h -2.11667 -2.11666 z m 23.98888,0 v -0.70556 h 1.41112 1.41111 v 0.70556 0.70555 h -1.41111 -1.41112 z m -2.82222,-1.41111 v -0.70556 h 0.70556 0.70555 v 0.70556 0.70555 h -0.70555 -0.70556 z m -21.16666,-1.41111 v -0.70556 h 1.41111 1.41111 v 0.70556 0.70555 h -1.41111 -1.41111 z m 18.34444,0 v -0.70556 h 0.70556 0.70555 v 0.70556 0.70555 h -0.70555 -0.70556 z m 5.64444,0 v -0.70556 h 0.70556 0.70556 v 0.70556 0.70555 h -0.70556 -0.70556 z m 16.93334,0 v -0.70556 h 0.70555 0.70556 v 0.70556 0.70555 h -0.70556 -0.70555 z m -36.68889,-1.41111 v -0.70556 h 0.70556 0.70555 v 0.70556 0.70555 h -0.70555 -0.70556 z m 5.64444,0 v -0.70556 h 0.70556 0.70556 v 0.70556 0.70555 h -0.70556 -0.70556 z m 5.64445,0 v -0.70556 h 0.70555 0.70556 v 0.70556 0.70555 h -0.70556 -0.70555 z m 5.64444,0 v -0.70556 h 0.70556 0.70555 v 0.70556 0.70555 h -0.70555 -0.70556 z m 5.64445,0 v -0.70556 h 0.70555 0.70556 v 0.70556 0.70555 h -0.70556 -0.70555 z m 5.64444,0 v -0.70556 h 0.70556 0.70555 v 0.70556 0.70555 h -0.70555 -0.70556 z m 5.64445,0 v -0.70556 h 0.70555 0.70556 v 0.70556 0.70555 h -0.70556 -0.70555 z m 5.64444,0 v -0.70556 h -1.41111 -1.41111 v -0.70556 -0.70555 h -1.41111 -1.41111 v -0.70556 -0.70555 h -1.41112 -1.41111 v -0.70556 -0.70555 h -1.41111 -1.41111 v -0.70556 -0.70555 h -0.70555 -0.70556 v -0.70556 -0.70556 h 0.70556 0.70555 v 0.70556 0.70556 h 1.41111 1.41111 v 0.70555 0.70556 h 1.41111 1.41112 v 0.70555 0.70556 h 1.41111 1.41111 v 0.70555 0.70556 h 1.41111 1.41111 v 0.70555 0.70556 h 0.70555 0.70556 v 0.70556 0.70555 h -0.70556 -0.70555 z m -36.68889,-1.41112 v -0.70555 h 0.70556 0.70555 v 0.70555 0.70556 h -0.70555 -0.70556 z m 5.64445,0 v -0.70555 h 0.70555 0.70556 v 0.70555 0.70556 h -0.70556 -0.70555 z m 5.64444,0 v -0.70555 h -1.41111 -1.41111 v -0.70556 -0.70555 h -1.41111 -1.41111 v -0.70556 -0.70555 h 1.41111 1.41111 v 0.70555 0.70556 h 1.41111 1.41111 v 0.70555 0.70556 h 0.70556 0.70555 v 0.70555 0.70556 h -0.70555 -0.70556 z m 5.64444,0 v -0.70555 h 0.70556 0.70556 v -0.70556 -0.70555 h 1.41111 1.41111 v -0.70556 -0.70555 h 1.41111 1.41111 v 0.70555 0.70556 h -1.41111 -1.41111 v 0.70555 0.70556 h -1.41111 -1.41111 v 0.70555 0.70556 h -0.70556 -0.70556 z m 5.64445,0 v -0.70555 h 0.70555 0.70556 v 0.70555 0.70556 h -0.70556 -0.70555 z m 5.64444,0 v -0.70555 h 0.70556 0.70555 v 0.70555 0.70556 h -0.70555 -0.70556 z m -25.4,-1.41111 v -0.70555 h 0.70556 0.70556 v 0.70555 0.70556 h -0.70556 -0.70556 z m 22.57778,0 v -0.70555 h 0.70556 0.70555 v 0.70555 0.70556 h -0.70555 -0.70556 z m -23.98889,-2.82222 v -0.70555 h 1.41111 1.41112 v 0.70555 0.70556 h -1.41112 -1.41111 z m 0,-2.82222 v -0.70556 h 2.11667 2.11667 v 0.70556 0.70555 h -2.11667 -2.11667 z m 1.41111,-2.82222 v -0.70556 h 1.41112 1.41111 v 0.70556 0.70555 h -1.41111 -1.41112 z m 0,-2.82222 v -0.70556 h 0.70556 0.70556 v 0.70556 0.70555 h -0.70556 -0.70556 z m -2.82222,-1.41112 v -0.70555 h 0.70556 0.70555 v 0.70555 0.70556 h -0.70555 -0.70556 z m 5.64445,0 v -0.70555 h 1.41111 1.41111 v 0.70555 0.70556 h -1.41111 -1.41111 z m -8.46667,-1.41111 v -0.70555 h 0.70556 0.70555 v 0.70555 0.70556 h -0.70555 -0.70556 z m 5.64444,0 v -0.70555 h 0.70556 0.70556 v 0.70555 0.70556 h -0.70556 -0.70556 z m -9.87777,-1.41111 v -0.70555 h 1.41111 1.41111 v 0.70555 0.70556 h -1.41111 -1.41111 z m 7.05555,0 v -0.70555 h 0.70556 0.70555 v 0.70555 0.70556 h -0.70555 -0.70556 z m -2.82222,-1.41111 v -0.70555 h 0.70556 0.70555 v 0.70555 0.70556 h -0.70555 -0.70556 z m 5.64444,0 v -0.70555 h -1.41111 -1.41111 v -0.70556 -0.70556 h -1.41111 -1.41111 v -0.70555 -0.70556 h -2.11667 -2.11666 v -1.41111 -1.41111 h 0.70555 0.70556 v 0.70556 0.70555 h 1.41111 1.41111 v 0.70556 0.70555 h 1.41111 1.41111 v 0.70556 0.70555 h 1.41111 1.41111 v 0.70556 0.70556 h 1.41112 1.41111 v 0.70555 0.70556 h -1.41111 -1.41112 z m -9.87777,-1.41111 v -0.70556 h 1.41111 1.41111 v 0.70556 0.70556 h -1.41111 -1.41111 z m 12.7,-47.27222 v -1.411111 h 0.70555 0.70556 v 1.411111 1.411111 h -0.70556 -0.70555 z m -76.2,-7.761111 v -0.705555 h 0.70556 0.70555 v 0.705555 0.705556 h -0.70555 -0.70556 z m -25.4,-4.233333 v -0.705555 h 0.70556 0.70556 v 0.705555 0.705556 h -0.70556 -0.70556 z m 56.44444,-5.644444 v -0.705556 h 0.70556 0.70556 v 0.705556 0.705555 h -0.70556 -0.70556 z M 167.67022,42.395246 v -0.705555 h 0.70556 0.70555 v 0.705555 0.705556 h -0.70555 -0.70556 z"
         style="fill:#c633fe;stroke-width:2.66666627" />
      <path
         id="path4502"
         d="M -84.918648,150.34524 V 14.878581 H 112.63689 310.19243 V 150.34524 285.8119 h -29.28055 -29.28055 v -13.40555 -13.40556 h 9.87777 9.87778 v -2.82222 -2.82222 h -1.41111 -1.41111 v -3.52778 -3.52778 h -1.41111 -1.41111 v -4.93889 -4.93889 h -1.41112 -1.41111 v -4.93888 -4.93889 h 2.11667 2.11667 v 0.70555 0.70556 h 1.41111 1.41111 v 0.70555 0.70556 h 10.58333 10.58333 v -0.70556 -0.70555 h 1.41111 1.41112 v -0.70556 -0.70555 h 1.41111 1.41111 v -0.70556 -0.70555 h 1.41111 1.41111 v -0.70556 -0.70555 h 1.41111 1.41111 v -1.41112 -1.41111 h 1.41111 1.41111 v -2.11666 -2.11667 h 1.41111 1.41112 v -4.93889 -4.93889 h -1.41112 -1.41111 v -3.52777 -3.52778 h -1.41111 -1.41111 v -2.82222 -2.82223 h -1.41111 -1.41111 v -1.41111 -1.41111 h -1.41111 -1.41111 v -2.11667 -2.11666 h -1.41111 -1.41111 v -2.11667 -2.11667 h -1.41112 -1.41111 v -1.41111 -1.41111 h -1.41111 -1.41111 v -2.11666 -2.11667 h -1.41111 -1.41111 v -1.41111 -1.41111 h -1.41111 -1.41111 v -1.41111 -1.41111 h -1.41111 -1.41111 v -1.41112 -1.41111 h -1.41112 -1.41111 v -1.41111 -1.41111 h -1.41111 -1.41111 v -2.82222 -2.82222 h 1.41111 1.41111 v -0.70556 -0.70555 h 1.41111 1.41112 v -1.41111 -1.41112 h 1.41111 1.41111 v -0.70555 -0.70556 h 1.41111 1.41111 v -0.70555 -0.70556 h 1.41111 1.41111 v -1.41111 -1.41111 h -1.41111 -1.41111 v -0.70556 -0.70555 h -1.41111 -1.41111 v -1.41111 -1.41111 h -1.41111 -1.41111 v -0.70556 -0.70555 h -1.41112 -1.41111 v -0.70556 -0.70556 h -1.41111 -1.41111 v -0.70555 -0.70556 h -1.41111 -1.41111 v -0.70555 -0.70556 h -1.41111 -1.41111 v -0.70555 -0.70556 h -1.41111 -1.41111 v -0.70555 -0.70556 h -1.41112 -1.41111 v -0.70555 -0.70556 h -1.41111 -1.41111 v -0.70556 -0.70555 h -1.41111 -1.41111 v -1.41111 -1.41111 h -1.41111 -1.41111 v -0.70556 -0.70555 h -1.41111 -1.41111 v -0.70556 -0.70556 h -1.41112 -1.41111 v -0.70555 -0.70556 h -1.41111 -1.41111 v -0.70555 -0.70556 h -1.41111 -1.41111 v -0.70555 -0.70556 h -1.41111 -1.41111 v -0.70555 -0.70556 h -1.41111 -1.41111 v -1.41111 -1.41111 h -1.41112 -1.41111 V 108.01191 96.723021 h -1.41111 -1.41111 V 95.31191 93.900799 h 7.05556 7.05555 v -0.705555 -0.705556 h 1.41111 1.41111 v -0.705555 -0.705556 h 1.41111 1.41112 v -0.705555 -0.705556 h 1.41111 1.41111 v -1.411111 -1.411111 h 1.41111 1.41111 v -6.35 -6.349999 h -1.41111 -1.41111 v -2.116667 -2.116666 h -1.41111 -1.41111 v -3.527778 -3.527778 h -1.41112 -1.41111 v -3.527777 -3.527778 h -1.41111 -1.41111 V 54.38969 52.978579 h -1.41111 -1.41111 v -1.411111 -1.411111 h -1.41111 -1.41111 v -0.705555 -0.705556 h -1.41111 -1.41111 v -1.411111 -1.411111 h -1.41112 -1.41111 v -3.527778 -3.527777 h -1.41111 -1.41111 v -2.116667 -2.116666 h -1.41111 -1.41111 v -2.116667 -2.116667 h -1.41111 -1.41111 V 28.989691 27.57858 h -1.41111 -1.41111 v -0.705555 -0.705556 h -1.41112 -1.41111 v -0.705555 -0.705556 h -1.41111 -1.41111 v -0.705555 -0.705556 h -2.82222 -2.82222 v -0.705555 -0.705556 h -11.99445 -11.99444 v 0.705556 0.705555 h -2.82222 -2.82222 v 0.705556 0.705555 h -1.41111 -1.41112 v 0.705556 0.705555 h -1.41111 -1.41111 v 0.705556 0.705555 h -1.41111 -1.41111 v 0.705556 0.705555 h -1.41111 -1.41111 v 1.411111 1.411111 h -1.41111 -1.41111 v 0.705556 0.705556 h -1.41111 -1.41112 v 1.411111 1.411111 h -1.41111 -1.41111 v 0.705555 0.705556 h -0.35278 -0.35277 v 0.705555 0.705556 h -1.05834 -1.05833 v 1.411111 1.411111 h -1.41111 -1.41111 v 1.411111 1.411111 h -1.41111 -1.41111 v 1.411111 1.411111 h -1.41111 -1.41112 v 2.116667 2.116666 h -1.41111 -1.41111 v 0.705556 0.705555 h -3.175 -3.175 v 0.705556 0.705555 h -1.05833 -1.05833 v 0.705556 0.705555 h -1.41111 -1.41112 v 0.705556 0.705555 h -1.41111 -1.41111 v 2.116667 2.116666 h -1.41111 -1.41111 v 0.705556 0.705555 h -2.82222 -2.82222 v 1.411111 1.411111 h -1.41111 -1.41112 v 1.411112 1.411111 h -0.35277 -0.35278 v 4.233333 4.233333 h 0.35278 0.35277 v 0.705555 0.705556 h 1.41112 1.41111 v 1.411111 1.411111 h 1.41111 1.41111 v 0.705555 0.705556 h 4.23333 4.23333 v 1.411111 1.411111 h 1.41112 1.41111 v 7.055555 7.055555 h -1.41111 -1.41112 v 0.705557 0.70555 H 109.81467 82.298006 V 100.2508 99.545243 H 78.064672 73.831339 V 98.839688 98.134132 H 69.598006 65.364673 V 97.428577 96.723021 H 62.542451 59.720229 V 96.017466 95.31191 H 55.486896 51.253563 V 94.606355 93.900799 H 47.02023 42.786897 V 93.195244 92.489688 H 38.553564 34.320231 V 91.784133 91.078577 H 30.086898 25.853565 V 90.373022 89.667466 H 21.620232 17.386899 V 88.961911 88.256355 H 14.564677 11.742455 V 87.5508 86.845244 H 7.5091225 3.2757895 v -0.705555 -0.705556 h -4.233333 -4.233333 v -0.705555 -0.705556 h -2.822222 -2.8222225 v -0.705555 -0.705556 h -4.233333 -4.233333 V 81.906355 81.2008 h -4.233333 -4.233333 v -0.705556 -0.705555 h -2.822222 -2.822222 v -0.705556 -0.705555 h -4.233333 -4.233333 v -0.705556 -0.705555 h -4.233333 -4.233333 v -0.705556 -0.705555 h -3.527777 -3.527778 v 25.399994 25.4 h -0.705555 -0.705556 v -0.70555 -0.70556 h -4.938888 -4.938888 v 0.70556 0.70555 h -1.411112 -1.411111 v 2.11667 2.11667 h -1.411111 -1.411111 v 2.11666 2.11667 h 1.411111 1.411111 v 3.52778 3.52777 h -1.411111 -1.411111 v 3.52778 3.52778 h 1.411111 1.411111 v 2.82222 2.82222 h -1.411111 -1.411111 v 0.70556 0.70556 h -0.352777 -0.352778 v 3.52777 3.52778 h 0.352778 0.352777 v 0.70556 0.70555 h 1.411111 1.411111 v 2.11667 2.11666 h -1.411111 -1.411111 v 3.52778 3.52778 h 1.411111 1.411111 v 1.41111 1.41111 h 7.055556 7.055554 v 35.98333 35.98333 h 1.411111 1.411111 v 0.70556 0.70556 h 2.822222 2.822222 v 0.70555 0.70556 h 4.233333 4.233333 v 0.70555 0.70556 h 2.469445 2.469444 v 0.70555 0.70556 h 3.175 3.174999 v 0.70555 0.70556 h 2.822222 2.822222 v 0.70556 0.70555 h 3.880556 3.880555 v 0.70556 0.70555 h 3.175 3.1749995 v 0.70556 0.70555 h 2.822222 2.822222 v 0.70556 0.70555 h 2.822222 2.822222 v 0.70556 0.70556 h 4.233333 4.2333325 v 0.70555 0.70556 h 2.822222 2.822222 v 0.70555 0.70556 h 2.822222 2.822222 v 0.70555 0.70556 h 2.822222 2.822222 v 0.70555 0.70556 h 4.233333 4.233333 v 0.70556 0.70555 h 2.822222 2.822222 v 0.70556 0.70555 h 2.822222 2.822222 v 0.70556 0.70555 h 2.822222 2.822222 v 0.70556 0.70555 h 4.233333 4.233333 v 0.70556 0.70555 h 2.822222 2.822222 v 0.70556 0.70556 h 2.822222 2.822222 v 0.70555 0.70556 h 2.822222 2.822222 v 0.70555 0.70556 h 4.233334 4.233332 v 0.70555 0.70556 h 2.822222 2.822222 v 0.70555 0.70556 h 6.35 6.349998 v -0.70556 -0.70555 h 1.41111 1.41111 v -0.70556 -0.70555 h 5.64445 5.64444 v -0.70556 -0.70555 h 3.52778 3.52778 v 2.82222 2.82222 H 20.561899 -84.918648 Z M 261.5091,254.0619 v -0.70555 h 1.41111 1.41111 v 0.70555 0.70556 h -1.41111 -1.41111 z m 1.41111,-2.82222 v -0.70556 h 0.70556 0.70555 v 0.70556 0.70556 h -0.70555 -0.70556 z M 241.04799,127.06191 v -0.70556 h 0.35278 0.35278 v 0.70556 0.70555 h -0.35278 -0.35278 z"
         style="fill:#0ca0fe;stroke-width:2.66666627" />
      <path
         id="path4500"
         d="m 246.69244,172.21746 v -0.70555 h 0.70555 0.70556 v 0.70555 0.70556 h -0.70556 -0.70555 z m 28.22222,-18.34444 v -0.70556 h 0.70555 0.70556 v 0.70556 0.70555 h -0.70556 -0.70555 z m -63.5,-70.555553 v -0.705556 h 0.70556 0.70555 v 0.705556 0.705555 h -0.70555 -0.70556 z m -7.05555,-2.822223 v -0.705555 h 0.70555 0.70556 v 0.705555 0.705556 h -0.70556 -0.70555 z M 129.57022,74.8508 v -0.705555 h 0.70556 0.70555 v 0.705555 0.705556 h -0.70555 -0.70556 z m 12.7,-1.411111 v -0.705555 h 0.70556 0.70555 v 0.705555 0.705556 h -0.70555 -0.70556 z m 23.98889,-29.633332 v -0.705555 h 0.70556 0.70555 v 0.705555 0.705556 h -0.70555 -0.70556 z m 33.86666,-1.411111 v -0.705555 h 0.70556 0.70555 v 0.705555 0.705556 h -0.70555 -0.70556 z M 169.08133,40.984135 V 40.27858 h 0.70556 0.70555 v 0.705555 0.705556 h -0.70555 -0.70556 z"
         style="fill:#37ca00;stroke-width:2.66666627" />
      <path
         id="path4498"
         d="m 126.04245,282.98968 v -2.82222 h -3.52778 -3.52778 v 0.70555 0.70556 h -5.64444 -5.64445 v 0.70555 0.70556 h -1.41111 -1.41111 v 0.70555 0.70556 h -6.349998 -6.35 v -0.70556 -0.70555 H 89.35356 86.531338 v -0.70556 -0.70555 h -4.233332 -4.233334 v -0.70556 -0.70555 H 75.24245 72.420228 v -0.70556 -0.70555 h -2.822222 -2.822222 v -0.70556 -0.70556 H 63.953562 61.13134 v -0.70555 -0.70556 h -4.233333 -4.233333 v -0.70555 -0.70556 H 49.842452 47.02023 v -0.70555 -0.70556 h -2.822222 -2.822222 v -0.70555 -0.70556 h -2.822222 -2.822222 v -0.70555 -0.70556 h -4.233333 -4.233333 v -0.70556 -0.70555 h -2.822222 -2.822222 v -0.70556 -0.70555 H 18.79801 15.975788 v -0.70556 -0.70555 h -2.822222 -2.822222 v -0.70556 -0.70555 H 6.0980115 1.8646785 v -0.70556 -0.70556 h -2.822222 -2.822222 v -0.70555 -0.70556 h -2.822222 -2.822222 v -0.70555 -0.70556 h -3.1749995 -3.175 v -0.70555 -0.70556 h -3.880555 -3.880556 v -0.70555 -0.70556 h -2.822222 -2.822222 v -0.70556 -0.70555 h -3.174999 -3.175 v -0.70556 -0.70555 h -2.469444 -2.469445 v -0.70556 -0.70555 h -4.233333 -4.233333 v -0.70556 -0.70555 h -2.822222 -2.822222 v -0.70556 -0.70556 h -1.411111 -1.411111 v -35.98333 -35.98333 h -7.055554 -7.055556 v -1.41111 -1.41111 h -1.411111 -1.411111 v -3.52778 -3.52778 h 1.411111 1.411111 v -2.11666 -2.11667 h -1.411111 -1.411111 v -0.70555 -0.70556 h -0.352777 -0.352778 v -3.52778 -3.52777 h 0.352778 0.352777 v -0.70556 -0.70556 h 1.411111 1.411111 v -2.82222 -2.82222 h -1.411111 -1.411111 v -3.52778 -3.52778 h 1.411111 1.411111 v -3.52777 -3.52778 h -1.411111 -1.411111 v -2.11667 -2.11666 h 1.411111 1.411111 v -2.11667 -2.11667 h 1.411111 1.411112 v -0.70555 -0.70556 h 4.938888 4.938888 v 0.70556 0.70555 h 0.705556 0.705555 v -25.4 -25.399994 h 3.527778 3.527777 v 0.705555 0.705556 h 4.233333 4.233333 v 0.705555 0.705556 h 4.233333 4.233333 v 0.705555 0.705556 h 2.822222 2.822222 v 0.705555 0.705556 h 4.233333 4.233333 v 0.705555 0.705556 h 4.233333 4.233333 v 0.705556 0.705555 h 2.8222225 2.822222 v 0.705556 0.705555 h 4.233333 4.233333 v 0.705556 0.705555 h 4.233333 4.2333325 v 0.705556 0.705555 h 2.822222 2.822222 v 0.705556 0.705555 h 4.233333 4.233333 v 0.705556 0.705555 h 4.233333 4.233333 v 0.705556 0.705555 h 4.233333 4.233333 v 0.705556 0.705555 h 4.233333 4.233333 v 0.705556 0.705555 h 4.233333 4.233333 v 0.705556 0.705555 h 2.822222 2.822222 v 0.705556 0.705555 h 4.233333 4.233333 v 0.705556 0.705555 h 4.233333 4.233334 v 0.705557 0.70555 h 27.516664 27.51666 v -0.70555 -0.705557 h 1.41112 1.41111 v -7.055555 -7.055555 h -1.41111 -1.41112 V 84.023022 82.611911 H 133.098 128.86467 V 81.906355 81.2008 h -1.41111 -1.41111 v -1.411111 -1.411111 h -1.41111 -1.41112 v -0.705556 -0.705555 h -0.35277 -0.35278 v -4.233333 -4.233333 h 0.35278 0.35277 V 67.08969 65.678578 h 1.41112 1.41111 v -1.411111 -1.411111 h 2.82222 2.82222 v -0.705555 -0.705556 h 1.41111 1.41111 v -2.116666 -2.116667 h 1.41111 1.41111 v -0.705555 -0.705556 h 1.41112 1.41111 V 55.095246 54.38969 h 1.05833 1.05833 v -0.705555 -0.705556 h 3.175 3.175 v -0.705555 -0.705556 h 1.41111 1.41111 v -2.116666 -2.116667 h 1.41112 1.41111 v -1.411111 -1.411111 h 1.41111 1.41111 v -1.411111 -1.411111 h 1.41111 1.41111 V 40.27858 38.867469 h 1.05833 1.05834 v -0.705556 -0.705555 h 0.35277 0.35278 v -0.705556 -0.705555 h 1.41111 1.41111 v -1.411111 -1.411111 h 1.41112 1.41111 v -0.705556 -0.705556 h 1.41111 1.41111 v -1.411111 -1.411111 h 1.41111 1.41111 V 28.284136 27.57858 h 1.41111 1.41111 v -0.705555 -0.705556 h 1.41111 1.41111 v -0.705555 -0.705556 h 1.41112 1.41111 v -0.705555 -0.705556 h 2.82222 2.82222 v -0.705555 -0.705556 h 11.99444 11.99445 v 0.705556 0.705555 h 2.82222 2.82222 v 0.705556 0.705555 h 1.41111 1.41111 v 0.705556 0.705555 h 1.41111 1.41112 v 0.705556 0.705555 h 1.41111 1.41111 v 1.411111 1.411111 h 1.41111 1.41111 v 2.116667 2.116667 h 1.41111 1.41111 v 2.116666 2.116667 h 1.41111 1.41111 v 3.527777 3.527778 h 1.41111 1.41112 v 1.411111 1.411111 h 1.41111 1.41111 v 0.705556 0.705555 h 1.41111 1.41111 v 1.411111 1.411111 h 1.41111 1.41111 v 1.411111 1.411111 h 1.41111 1.41111 v 3.527778 3.527777 h 1.41111 1.41112 v 3.527778 3.527778 h 1.41111 1.41111 v 2.116666 2.116667 h 1.41111 1.41111 v 6.349999 6.35 h -1.41111 -1.41111 v 1.411111 1.411111 h -1.41111 -1.41111 v 0.705556 0.705555 h -1.41112 -1.41111 v 0.705556 0.705555 h -1.41111 -1.41111 v 0.705556 0.705555 h -7.05555 -7.05556 v 1.411111 1.411111 h 1.41111 1.41111 v 11.288889 11.28889 h 1.41111 1.41112 v 1.41111 1.41111 h 1.41111 1.41111 v 0.70556 0.70555 h 1.41111 1.41111 v 0.70556 0.70555 h 1.41111 1.41111 v 0.70556 0.70555 h 1.41111 1.41111 v 0.70556 0.70555 h 1.41111 1.41112 v 0.70556 0.70556 h 1.41111 1.41111 v 0.70555 0.70556 h 1.41111 1.41111 v 1.41111 1.41111 h 1.41111 1.41111 v 0.70555 0.70556 h 1.41111 1.41111 v 0.70556 0.70555 h 1.41111 1.41112 v 0.70556 0.70555 h 1.41111 1.41111 v 0.70556 0.70555 h 1.41111 1.41111 v 0.70556 0.70555 h 1.41111 1.41111 v 0.70556 0.70555 h 1.41111 1.41111 v 0.70556 0.70556 h 1.41111 1.41112 v 0.70555 0.70556 h 1.41111 1.41111 v 1.41111 1.41111 h 1.41111 1.41111 v 0.70555 0.70556 h 1.41111 1.41111 v 1.41111 1.41111 h -1.41111 -1.41111 v 0.70556 0.70555 h -1.41111 -1.41111 v 0.70556 0.70555 h -1.41111 -1.41111 v 1.41112 1.41111 h -1.41112 -1.41111 v 0.70555 0.70556 h -1.41111 -1.41111 v 2.82222 2.82222 h 1.41111 1.41111 v 1.41111 1.41111 h 1.41111 1.41112 v 1.41111 1.41112 h 1.41111 1.41111 v 1.41111 1.41111 h 1.41111 1.41111 v 1.41111 1.41111 h 1.41111 1.41111 v 2.11667 2.11666 h 1.41111 1.41111 v 1.41111 1.41111 h 1.41111 1.41112 v 2.11667 2.11667 h 1.41111 1.41111 v 2.11666 2.11667 h 1.41111 1.41111 v 1.41111 1.41111 h 1.41111 1.41111 v 2.82223 2.82222 h 1.41111 1.41111 v 3.52778 3.52777 h 1.41111 1.41112 v 4.93889 4.93889 h -1.41112 -1.41111 v 2.11667 2.11666 h -1.41111 -1.41111 v 1.41111 1.41112 h -1.41111 -1.41111 v 0.70555 0.70556 h -1.41111 -1.41111 v 0.70555 0.70556 h -1.41111 -1.41111 v 0.70555 0.70556 h -1.41112 -1.41111 v 0.70555 0.70556 H 280.5591 269.97577 v -0.70556 -0.70555 h -1.41111 -1.41111 v -0.70556 -0.70555 h -2.11667 -2.11667 v 4.93889 4.93888 h 1.41111 1.41112 v 4.93889 4.93889 h 1.41111 1.41111 v 3.52778 3.52778 h 1.41111 1.41111 v 2.82222 2.82222 h -9.87778 -9.87777 v 13.40556 13.40555 h -62.79444 -62.79444 z m -21.87222,-3.52778 v -0.70555 h 4.93888 4.93889 v -0.70556 -0.70556 h 4.93889 4.93889 v -0.70555 -0.70556 h 6.35 6.35 v -0.70555 -0.70556 h 8.46666 8.46667 v -0.70555 -0.70556 h 9.17222 9.17222 v -0.70555 -0.70556 h 5.99723 5.99722 v -0.70555 -0.70556 h 5.29166 5.29167 v -0.70556 -0.70555 h 7.05555 7.05556 v -0.70556 -0.70555 h 4.58611 4.58611 v -0.70556 -0.70555 h 6.70278 6.70278 v -28.92778 -28.92778 h -6.35 -6.35 v -0.70555 -0.70556 h -1.41111 -1.41112 v -0.70555 -0.70556 h -1.41111 -1.41111 v -0.70555 -0.70556 h -0.70555 -0.70556 v -2.11667 -2.11666 h 0.70556 0.70555 v -0.70556 -0.70555 h -2.11666 -2.11667 v -0.70556 -0.70555 h -1.76389 -1.76389 v -0.70556 -0.70556 h -1.05833 -1.05833 v -0.70555 -0.70556 h -0.70556 -0.70556 v -2.82222 -2.82222 h 0.70556 0.70556 v -0.70556 -0.70555 h -2.82223 -2.82222 v -0.70556 -0.70555 h -0.70555 -0.70556 v -0.70556 -0.70555 h -0.70555 -0.70556 v -2.82223 -2.82222 h 0.70556 0.70555 v -0.70555 -0.70556 h 0.70556 0.70555 v -0.70555 -0.70556 h 0.70556 0.70555 v -0.70556 -0.70555 h 0.70556 0.70555 v -0.70556 -0.70555 h 1.41111 1.41112 v -0.70556 -0.70555 h -0.70556 -0.70556 v -2.11667 -2.11667 h 0.70556 0.70556 v -0.70555 -0.70556 h 1.41111 1.41111 v -0.70555 -0.70556 h 1.41111 1.41111 v -0.70555 -0.70556 h 2.82222 2.82222 v -0.70556 -0.70555 h 8.46667 8.46667 v -19.05 -19.05 h 0.35277 0.35278 V 111.53969 99.545243 h -13.05278 -13.05277 v 0.705557 0.70555 h -12.7 -12.7 v 0.70556 0.70556 h -19.05 -19.05 v 0.70555 0.70556 H 110.52023 78.770228 v -0.70556 -0.70555 H 75.24245 71.714673 v -0.70556 -0.70556 H 67.48134 63.248007 V 100.2508 99.545243 H 59.720229 56.192452 V 98.839688 98.134132 H 51.959119 47.725786 V 97.428577 96.723021 H 44.198008 40.670231 V 96.017466 95.31191 H 37.142453 33.614676 V 94.606355 93.900799 H 29.381343 25.14801 V 93.195244 92.489688 H 21.620232 18.092455 V 91.784133 91.078577 H 13.859122 9.625789 V 90.373022 89.667466 H 6.0980115 2.570234 V 88.961911 88.256355 H -1.663099 -5.896432 V 87.5508 86.845244 h -3.5277775 -3.5277775 v -0.705555 -0.705556 h -3.527778 -3.527777 v -0.705555 -0.705556 h -4.233333 -4.233333 v -0.705555 -0.705556 h -3.527778 -3.527777 V 81.906355 81.2008 h -4.233333 -4.233333 v -0.705556 -0.705555 h -3.527778 -3.527777 v -0.705556 -0.705555 h -1.411111 -1.411111 v 23.988892 23.98888 h 0.705555 0.705556 v 1.41111 1.41112 h 1.411111 1.411111 v 0.70555 0.70556 h 1.411111 1.411111 v 0.70555 0.70556 h 0.705555 0.705556 v 0.70555 0.70556 h 0.705555 0.705556 v 0.70555 0.70556 h 1.058333 1.058333 v 0.70556 0.70555 h 0.352778 0.352778 v 0.70556 0.70555 h 0.705555 0.705556 v 1.41111 1.41111 h 0.705555 0.705556 v 2.82223 2.82222 h -0.705556 -0.705555 v 0.70555 0.70556 h -0.705556 -0.705555 v 0.70555 0.70556 h -0.705556 -0.705555 v 0.70556 0.70555 h -0.705556 -0.705555 v 1.41111 1.41111 h 0.352778 0.352777 v 2.82223 2.82222 h -1.058333 -1.058333 v 0.70555 0.70556 h -0.705556 -0.705555 v 0.70555 0.70556 h 0.705555 0.705556 v 1.41111 1.41111 h -0.705556 -0.705555 v 0.70556 0.70555 h -0.705556 -0.705555 v 0.70556 0.70555 h 0.705555 0.705556 v 0.70556 0.70555 h 1.058333 1.058333 v 0.70556 0.70556 h 0.352778 0.352778 v 2.11666 2.11667 h -0.705556 -0.705555 v 0.70555 0.70556 h -1.411111 -1.411111 v 0.70556 0.70555 h -1.411111 -1.411111 v 0.70556 0.70555 h -1.411111 -1.411111 v 34.57222 34.57222 h 1.411111 1.411111 v 0.70556 0.70555 h 2.822222 2.822222 v 0.70556 0.70555 h 3.527777 3.527778 v 0.70556 0.70556 h 2.822222 2.822222 v 0.70555 0.70556 h 3.527777 3.527778 v 0.70555 0.70556 h 2.822222 2.822222 v 0.70555 0.70556 h 2.822222 2.822222 v 0.70555 0.70556 h 3.527777 3.527778 v 0.70556 0.70555 h 2.822222 2.822222 v 0.70556 0.70555 H 1.8646785 5.392456 v 0.70556 0.70555 H 8.214678 11.0369 v 0.70556 0.70555 h 2.822222 2.822222 v 0.70556 0.70556 h 3.527777 3.527778 v 0.70555 0.70556 h 2.822222 2.822222 v 0.70555 0.70556 h 3.527777 3.527778 v 0.70555 0.70556 h 2.822222 2.822222 v 0.70555 0.70556 h 3.527777 3.527778 v 0.70556 0.70555 h 3.527777 3.527778 v 0.70556 0.70555 h 2.822222 2.822222 v 0.70556 0.70555 h 3.527777 3.527778 v 0.70556 0.70555 h 3.527777 3.527778 v 0.70556 0.70555 h 2.822222 2.822222 v 0.70556 0.70556 h 3.527777 3.527778 v 0.70555 0.70556 h 7.76111 7.761115 z m 160.16109,-26.10555 v -2.82223 h -0.70555 -0.70556 v 0.70556 0.70556 h -3.88055 -3.88056 v -0.70556 -0.70556 h -1.41111 -1.41111 v -0.70555 -0.70556 h -1.41111 -1.41111 v -3.52777 -3.52778 h 0.70555 0.70556 v -0.70556 -0.70555 h 0.70556 0.70555 v -1.41111 -1.41111 h 2.82222 2.82222 v -3.52778 -3.52778 h -0.70555 -0.70556 v -0.70556 -0.70555 h -0.70555 -0.70556 v -0.70556 -0.70555 h 0.70556 0.70555 v -0.70556 -0.70555 h -0.70555 -0.70556 v -0.70556 -0.70555 h 0.70556 0.70555 v -0.70556 -0.70555 h -0.70555 -0.70556 v -1.41112 -1.41111 h -0.70555 -0.70556 v -0.70555 -0.70556 h -0.70555 -0.70556 v -0.70555 -0.70556 h -1.41111 -1.41111 v -1.41111 -1.41111 h -1.41111 -1.41111 v -0.70556 -0.70555 h -0.70556 -0.70555 v -0.70556 -0.70555 h -0.70556 -0.70556 v -0.70556 -0.70555 h -1.41111 -1.41111 v -1.41112 -1.41111 h -3.52777 -3.52778 v 7.05556 7.05555 h 0.70555 0.70556 v -0.70555 -0.70556 h 0.70555 0.70556 v -0.70555 -0.70556 h 4.93889 4.93889 v 0.70556 0.70555 h 1.41111 1.41111 v 0.70556 0.70555 h 0.70555 0.70556 v 4.93889 4.93889 h -1.41111 -1.41111 v 0.70556 0.70555 h -0.70556 -0.70555 v 0.70556 0.70555 h -4.93889 -4.93889 v -0.70555 -0.70556 h -0.70556 -0.70555 v -1.41111 -1.41111 h -0.70556 -0.70555 v 5.64444 5.64445 h 1.41111 1.41111 v 0.70555 0.70556 h 1.41111 1.41111 v 0.70556 0.70555 h 0.70556 0.70555 v 0.70556 0.70555 h 0.70556 0.70555 v 3.52778 3.52778 h -1.41111 -1.41111 v 0.70555 0.70556 h -1.41111 -1.41111 v 0.70555 0.70556 h 13.75833 13.75833 z m 23.28334,-28.92778 v -0.70555 h 1.41111 1.41111 v -0.70556 -0.70556 h 1.41111 1.41111 v -0.70555 -0.70556 h 1.41111 1.41111 v -0.70555 -0.70556 h 0.70556 0.70555 v -0.70555 -0.70556 h 0.70556 0.70555 v -1.41111 -1.41111 h 1.05834 1.05833 v -5.64445 -5.64444 h -1.05833 -1.05834 v -1.41111 -1.41111 h -0.70555 -0.70556 v -1.41111 -1.41111 h -0.70555 -0.70556 v -0.70556 -0.70555 h -0.35278 -0.35277 v -0.70556 -0.70556 h -0.35278 -0.35278 v -0.70555 -0.70556 h -0.35278 -0.35277 v -0.70555 -0.70556 h -0.70556 -0.70556 v -1.41111 -1.41111 h -0.70555 -0.70556 v -0.70556 -0.70555 h -1.05833 -1.05833 v -1.41111 -1.41111 h -0.70556 -0.70555 v -0.70556 -0.70555 h -0.70556 -0.70555 v -0.70556 -0.70556 h -0.70556 -0.70556 v -0.70555 -0.70556 h 0.35278 0.35278 v -0.70555 -0.70556 h -0.70556 -0.70555 v -0.70555 -0.70556 h -0.70556 -0.70555 v -0.70555 -0.70556 h -0.70556 -0.70555 v -0.70555 -0.70556 h -1.05834 -1.05833 v -0.70556 -0.70555 h -0.70556 -0.70555 v -0.70556 -0.70555 h -0.70556 -0.70555 v -0.70556 -0.70555 h -0.70556 -0.70555 v -0.70556 -0.70555 h -0.35278 -0.35278 v -0.70556 -0.70556 h -0.70555 -0.70556 v -0.70555 -0.70556 h -0.70555 -0.70556 v -0.70555 -0.70556 h -1.05833 -1.05834 v -0.70555 -0.70556 h -2.11666 -2.11667 v 0.70556 0.70555 h -1.41111 -1.41111 v 1.41111 1.41111 h -1.41111 -1.41111 v 0.70556 0.70556 h -1.41112 -1.41111 v 0.70555 0.70556 h -1.41111 -1.41111 v 1.41111 1.41111 h -1.41111 -1.41111 v 0.70555 0.70556 h -0.70556 -0.70555 v 0.70556 0.70555 h 0.70555 0.70556 v 0.70556 0.70555 h 0.70556 0.70555 v 0.70556 0.70555 h 0.70556 0.70555 v 0.70556 0.70555 h 0.70556 0.70555 v 0.70556 0.70555 h 1.41111 1.41111 v 0.70556 0.70556 h 1.41112 1.41111 v 0.70555 0.70556 h 0.70555 0.70556 v 0.70555 0.70556 h 1.41111 1.41111 v 0.70555 0.70556 h 1.41111 1.41111 v 0.70555 0.70556 h 0.70556 0.70555 v 0.70556 0.70555 h 1.41111 1.41112 v 0.70556 0.70555 h 0.70555 0.70556 v 0.70556 0.70555 h 0.70555 0.70556 v 0.70556 0.70555 h 0.70555 0.70556 v 0.70556 0.70556 h 1.41111 1.41111 v 0.70555 0.70556 h 0.70556 0.70555 v 1.41111 1.41111 h 0.70556 0.70555 v 0.70555 0.70556 h -2.11666 -2.11667 v -0.70556 -0.70555 h -0.70556 -0.70555 v -0.70556 -0.70555 h -0.70556 -0.70555 v -0.70556 -0.70555 h -1.41111 -1.41111 v -0.70556 -0.70555 h -0.70556 -0.70556 v -0.70556 -0.70556 h -0.70555 -0.70556 v -0.70555 -0.70556 h -1.41111 -1.41111 v -0.70555 -0.70556 h -1.41111 -1.41111 v -0.70555 -0.70556 h -0.70556 -0.70555 v -0.70555 -0.70556 h -1.41111 -1.41111 v -0.70556 -0.70555 h -0.70556 -0.70556 v -0.70556 -0.70555 h -1.41111 -1.41111 v -0.70556 -0.70555 h -1.41111 -1.41111 v -0.70556 -0.70555 h -0.70555 -0.70556 v -0.70556 -0.70556 h -2.11667 -2.11666 v 0.70556 0.70556 h 0.70555 0.70556 v 3.52777 3.52778 h -0.70556 -0.70555 v 0.70556 0.70555 h -0.70556 -0.70555 v 0.70556 0.70555 h -1.41112 -1.41111 v 0.70556 0.70555 h -1.05833 -1.05833 v 0.70556 0.70556 h 1.76389 1.76388 v 0.70555 0.70556 h 0.70556 0.70556 v 0.70555 0.70556 h 0.70555 0.70556 v 4.23333 4.23333 h 0.70555 0.70556 v 0.70556 0.70555 h 0.70555 0.70556 v 0.70556 0.70556 h 0.70555 0.70556 v 0.70555 0.70556 h 0.70556 0.70555 v 0.70555 0.70556 h 0.70556 0.70555 v 0.70555 0.70556 h 0.70556 0.70555 v 0.70555 0.70556 h 1.41111 1.41111 v 0.70556 0.70555 h 0.70556 0.70556 v 0.70556 0.70555 h 0.70555 0.70556 v 0.70556 0.70555 h 1.41111 1.41111 v 0.70556 0.70555 h 1.41111 1.41111 v 0.70556 0.70556 h 2.11667 2.11666 v 0.70555 0.70556 h 8.46667 8.46667 z m -47.97778,-19.75555 v -0.70556 h 0.70556 0.70555 v -2.11667 -2.11666 h -0.70555 -0.70556 v -0.70556 -0.70555 h -9.87778 -9.87777 v 0.70555 0.70556 h -1.41111 -1.41111 v 0.70555 0.70556 h -0.70556 -0.70556 v 0.70555 0.70556 h 0.70556 0.70556 v 0.70556 0.70555 h 1.41111 1.41111 v 0.70556 0.70555 h 9.87777 9.87778 z m -7.05555,-11.28889 v -0.70556 h 3.52777 3.52778 v -0.70555 -0.70556 h 1.41111 1.41111 v -0.70555 -0.70556 h 0.70556 0.70555 v -1.41111 -1.41111 h -0.70555 -0.70556 v -0.70556 -0.70555 h -9.17222 -9.17222 v 0.70555 0.70556 h -6.35 -6.35 v 0.70555 0.70556 h -2.11666 -2.11667 v 1.41111 1.41111 h -0.70556 -0.70555 v 0.70556 0.70555 h 0.70555 0.70556 v 0.70556 0.70555 h 12.7 12.7 z m -11.28889,-9.87778 v -0.70556 h 7.76111 7.76111 v -0.70555 -0.70556 h 2.82222 2.82222 v -0.70555 -0.70556 h 1.41111 1.41112 v -2.11666 -2.11667 h -0.70556 -0.70556 v -0.70556 -0.70555 h -5.64444 -5.64444 v 0.70555 0.70556 h -12.7 -12.7 v 0.70556 0.70555 h -2.11667 -2.11666 v 0.70556 0.70555 h -1.41112 -1.41111 v 0.70556 0.70555 h -0.70555 -0.70556 v 1.41111 1.41111 h 0.70556 0.70555 v 0.70556 0.70556 h 10.58334 10.58333 z m -273.755535,-8.46667 v -0.70555 h 1.411111 1.411111 v -0.70556 -0.70555 h 0.705555 0.705556 v -0.70556 -0.70555 h -0.705556 -0.705555 v -0.70556 -0.70555 h -0.352778 -0.352778 v -0.70556 -0.70556 h -8.466666 -8.466666 v 0.70556 0.70556 h -0.705555 -0.705555 v 0.70555 0.70556 h -0.705556 -0.705556 v 1.41111 1.41111 h 0.705556 0.705556 v 0.70555 0.70556 h 8.113888 8.113888 z m 283.633315,-2.82222 v -0.70555 h 4.23333 4.23333 v -0.70556 -0.70555 h 0.70556 0.70555 v -2.11667 -2.11667 h -0.70555 -0.70556 v -0.70555 -0.70556 h -10.58333 -10.58333 v 0.70556 0.70555 h -3.52778 -3.52778 v 0.70556 0.70555 h -0.70555 -0.70556 v 0.70556 0.70555 h -0.70555 -0.70556 v 0.70556 0.70556 h -0.70556 -0.70555 v 0.70555 0.70556 h 0.70555 0.70556 v 0.70555 0.70556 h 11.28889 11.28889 z m 16.93333,0 v -0.70555 h 1.41111 1.41111 v -0.70556 -0.70555 h -0.70556 -0.70555 v -0.70556 -0.70556 h 1.41111 1.41111 v -0.70555 -0.70556 h 1.41111 1.41111 v -0.70555 -0.70556 h 0.70556 0.70555 v -0.70555 -0.70556 h 1.41111 1.41112 v -0.70555 -0.70556 h 1.41111 1.41111 v -0.70556 -0.70555 h -0.70556 -0.70555 v -1.41111 -1.41111 h -0.70556 -0.70555 v -0.70556 -0.70555 h -0.70556 -0.70556 v -0.70556 -0.70555 h 0.70556 0.70556 v -0.70556 -0.70556 h 0.70555 0.70556 v -1.41111 -1.41111 h 1.41111 1.41111 v -0.70555 -0.70556 h 3.52778 3.52777 v 0.70556 0.70555 h 1.41112 1.41111 v 0.70556 0.70555 h 0.70555 0.70556 v 0.70556 0.70555 h 0.70555 0.70556 v -0.70555 -0.70556 h 0.70555 0.70556 v -0.70555 -0.70556 h 1.76389 1.76389 v -0.70555 -0.70556 h 0.70555 0.70556 v -0.70555 -0.70556 h -2.46945 -2.46944 v -0.70556 -0.70555 h -1.41111 -1.41111 v -0.70556 -0.70555 h -1.41111 -1.41111 v -0.70556 -0.70555 h -1.41112 -1.41111 v -0.70556 -0.70555 h -1.41111 -1.41111 v -0.70556 -0.70556 h -0.70555 -0.70556 v 0.70556 0.70556 h -0.70556 -0.70555 v 0.70555 0.70556 h -0.70556 -0.70555 v 0.70555 0.70556 h -1.41111 -1.41111 v 0.70555 0.70556 h -3.52778 -3.52778 v -0.70556 -0.70555 h -1.41111 -1.41111 v -0.70556 -0.70555 h -0.70556 -0.70555 v -0.70556 -0.70555 h -0.70556 -0.70555 v -3.52778 -3.52778 h 0.70555 0.70556 v -0.70555 -0.70556 h 0.70555 0.70556 v -1.41111 -1.41111 h -1.41111 -1.41111 v -1.41111 -1.41111 h -1.41111 -1.41112 v -0.70556 -0.70556 h -1.05833 -1.05833 v -0.70555 -0.70556 h -1.76389 -1.76389 v -0.70555 -0.70556 h -1.41111 -1.41111 v -0.70555 -0.70556 h -0.70556 -0.70555 v 4.93889 4.93889 h 1.41111 1.41111 v 0.70555 0.70556 h 1.41111 1.41111 v 0.70556 0.70555 h 1.41111 1.41111 v 0.70556 0.70555 h -0.70555 -0.70556 v 0.70556 0.70555 h 0.70556 0.70555 v 3.52778 3.52778 h -1.41111 -1.41111 v 0.70555 0.70556 h -0.70555 -0.70556 v 0.70555 0.70556 h -2.11667 -2.11666 v 6.35 6.35 h 2.11666 2.11667 v -0.70556 -0.70555 h -1.41111 -1.41111 v -0.70556 -0.70555 h 0.70555 0.70556 v -0.70556 -0.70555 h -0.70556 -0.70555 v -0.70556 -0.70555 h 0.70555 0.70556 v -0.70556 -0.70556 h 0.70556 0.70555 v -1.41111 -1.41111 h 1.41111 1.41111 v -0.70555 -0.70556 h 3.52778 3.52778 v 0.70556 0.70555 h 1.41111 1.41111 v 0.70556 0.70555 h 1.41111 1.41111 v 4.93889 4.93889 h -1.41111 -1.41111 v 0.70556 0.70555 h -2.82222 -2.82222 v 3.52778 3.52778 h 0.70555 0.70556 v 0.70555 0.70556 h 0.70555 0.70556 z m -299.155534,-7.05555 v -0.70556 h 0.705555 0.705556 v -1.41111 -1.41111 h -5.644444 -5.644444 v -0.70556 -0.70555 h -1.411111 -1.411111 v -0.70556 -0.70555 h -0.352778 -0.352777 v -0.70556 -0.70555 h -1.058334 -1.058333 v -0.70556 -0.70555 h -1.411111 -1.411111 v 0.70555 0.70556 h -0.705556 -0.705555 v 2.11666 2.11667 h 0.705555 0.705556 v 0.70555 0.70556 h 0.352778 0.352778 v 0.70556 0.70555 h 1.41111 1.411111 v 0.70556 0.70555 h 7.408333 7.408333 z m 1.411111,-7.05556 v -0.70555 h 0.705555 0.705556 v -0.70556 -0.70555 h 0.705555 0.705556 v -2.11667 -2.11667 h -1.411111 -1.411111 v -0.70555 -0.70556 h -1.411111 -1.411111 v -0.70555 -0.70556 h -1.411111 -1.411111 v -0.70556 -0.70555 h -1.411111 -1.411111 v -0.70556 -0.70555 h -1.411111 -1.411111 v -0.70556 -0.70555 h -1.411111 -1.411111 v -0.70556 -0.70555 h -0.705555 -0.705556 v -0.70556 -0.70556 h -1.058333 -1.058334 v 0.70556 0.70556 h -0.705555 -0.705555 v 2.82222 2.82222 h 0.705555 0.705555 v 0.70556 0.70555 h 0.705556 0.705555 v 1.41111 1.41111 h 1.411112 1.41111 v 1.41111 1.41112 h 1.411111 1.411111 v 0.70555 0.70556 h 1.411111 1.411111 v 0.70555 0.70556 h 3.880556 3.880555 z m 4.233333,-11.28889 v -0.70555 h 0.705555 0.705556 v -0.70556 -0.70555 h 0.705555 0.705556 v -2.11667 -2.11667 h -0.705556 -0.705555 v -1.41111 -1.41111 h -0.705556 -0.705555 v -0.70555 -0.70556 h -0.352778 -0.352778 v -0.70555 -0.70556 h -1.763888 -1.763889 v -0.70556 -0.70555 h -1.411111 -1.411111 v -0.70556 -0.70555 h -1.411111 -1.411111 v -0.70556 -0.70555 h -1.411111 -1.411111 v -0.70556 -0.70555 h -4.586111 -4.586111 v 0.70555 0.70556 h -0.705555 -0.705555 v 2.11666 2.11667 h 0.705555 0.705555 v 1.41111 1.41111 h 0.705556 0.705555 v 0.70556 0.70555 h 1.058334 1.058333 v 0.70556 0.70555 h 0.705555 0.705556 v 0.70556 0.70555 h 1.411111 1.411111 v 0.70556 0.70556 h 1.411111 1.411111 v 0.70555 0.70556 h 1.411111 1.411111 v 0.70555 0.70556 h 1.411111 1.411111 v 0.70555 0.70556 h 2.822222 2.822222 z M 178.25355,98.839688 v -0.705556 h 12.34722 12.34723 v -0.705555 -0.705556 h 12.34722 12.34722 v -2.116666 -2.116667 h -0.35278 -0.35278 v -1.411111 -1.411111 h -0.70555 -0.70556 v -0.705555 -0.705556 h 2.11667 2.11666 v 0.705556 0.705555 h 1.41112 1.41111 v 0.705556 0.705555 h 4.23333 4.23333 v -0.705555 -0.705556 h 2.11667 2.11667 v -0.705555 -0.705556 h 1.41111 1.41111 V 87.5508 86.845244 h 0.70555 0.70556 v -0.705555 -0.705556 h 1.05833 1.05834 v -1.411111 -1.411111 h 0.70555 0.70556 v -2.822222 -2.822222 h -0.70556 -0.70555 v -0.705556 -0.705555 h -1.05834 -1.05833 v -1.411111 -1.411111 h -1.41111 -1.41111 v -0.705556 -0.705555 h -4.93889 -4.93889 v 0.705555 0.705556 h -1.41111 -1.41111 v 0.705555 0.705556 h -1.41111 -1.41111 v 0.705555 0.705556 h -0.70556 -0.70556 v 0.705555 0.705556 h -0.70555 -0.70556 v 0.705555 0.705556 h -2.11666 -2.11667 v -6.35 -6.35 h 0.70556 0.70555 v -2.822222 -2.822222 h 0.70556 0.70555 v -4.233333 -4.233333 h 0.70556 0.70555 v -0.705555 -0.705556 h 0.70556 0.70555 v -0.705555 -0.705556 h 1.05834 1.05833 v -1.411111 -1.411111 h -1.05833 -1.05834 v -2.116667 -2.116666 h -0.70555 -0.70556 V 40.27858 38.867469 h -0.70555 -0.70556 v -1.411111 -1.411111 h -0.35277 -0.35278 v -0.705556 -0.705555 h -0.70556 -0.70555 V 33.92858 33.223025 h -0.70556 -0.70555 v -0.705556 -0.705556 h -0.70556 -0.70556 v -0.705555 -0.705556 h -1.05833 -1.05833 v -0.705555 -0.705556 h -0.70556 -0.70555 V 28.284136 27.57858 h -1.41111 -1.41112 v -0.705555 -0.705556 h -4.23333 -4.23333 v -0.705555 -0.705556 h -7.76111 -7.76111 v 0.705556 0.705555 h -2.82222 -2.82223 v 0.705556 0.705555 h -2.11666 -2.11667 v 0.705556 0.705555 h -1.41111 -1.41111 v 0.705556 0.705555 h -1.41111 -1.41111 v 0.705556 0.705555 h -0.70556 -0.70555 v 0.705556 0.705556 h -1.41112 -1.41111 v 0.705555 0.705556 h -0.35277 -0.35278 v 0.705555 0.705556 h -0.70556 -0.70555 v 0.705555 0.705556 h -1.05834 -1.05833 v 0.705555 0.705556 h -0.70555 -0.70556 v 0.705555 0.705556 h -0.70556 -0.70555 v 0.705555 0.705556 h -0.70556 -0.70555 v 0.705555 0.705556 h -0.70556 -0.70555 v 0.705555 0.705556 h -0.35278 -0.35278 v 0.705555 0.705556 h -0.70555 -0.70556 v 0.705555 0.705556 h -1.05833 -1.05834 v 0.705555 0.705556 h -0.70555 -0.70556 v 1.411111 1.411111 h -0.70555 -0.70556 v 0.705556 0.705555 h -0.70555 -0.70556 v 0.705556 0.705555 h -0.70555 -0.70556 v 1.411111 1.411111 h -0.70556 -0.70555 v 1.411111 1.411111 h -0.70556 -0.70555 v 1.411111 1.411111 h -0.70556 -0.70555 v 2.116667 2.116667 h -0.70556 -0.70555 v 0.705555 0.705556 h -2.11667 -2.11667 V 67.795245 67.08969 h -0.70555 -0.70556 v -0.705556 -0.705556 h -5.29166 -5.29167 v 0.705556 0.705556 h -0.70556 -0.70555 v 0.705555 0.705556 h -1.05833 -1.05834 v 3.527777 3.527778 h 0.70556 0.70555 v 0.705555 0.705556 h 1.76389 1.76389 v 0.705555 0.705556 h 2.46944 2.46945 v -0.705556 -0.705555 h 0.70555 0.70556 v -0.705556 -0.705555 h 0.70556 0.70555 V 74.8508 74.145245 h -0.70555 -0.70556 v -0.705556 -0.705555 h -0.70556 -0.70555 v -0.705556 -0.705555 h -2.11667 -2.11666 v 1.411111 1.411111 h -1.41112 -1.41111 v -1.411111 -1.411111 h 0.70556 0.70555 v -0.705556 -0.705555 h 0.70556 0.70556 v -0.705556 -0.705555 h 2.82222 2.82222 v 0.705555 0.705556 h 0.70556 0.70555 v 0.705555 0.705556 h 0.70556 0.70555 v 0.705555 0.705556 h 0.70556 0.70555 v 0.705555 0.705556 h 0.70556 0.70555 v -0.705556 -0.705555 h 1.41111 1.41112 v -0.705556 -0.705555 h 1.41111 1.41111 v -0.705556 -0.705555 h 1.41111 1.41111 v -0.705556 -0.705555 h 1.41111 1.41111 V 67.795245 67.08969 h 1.41111 1.41111 v -0.705556 -0.705556 h 1.41111 1.41112 v -0.705555 -0.705556 h 2.11666 2.11667 v -0.705555 -0.705556 h 2.11667 2.11666 v -0.705555 -0.705556 h 2.82222 2.82223 V 60.73969 60.034134 h 3.52777 3.52778 v 0.705556 0.705555 h -0.70555 -0.70556 v 0.705556 0.705555 h -2.11667 -2.11666 v 0.705556 0.705555 h -2.82223 -2.82222 v 0.705556 0.705555 h -2.82222 -2.82222 v 0.705556 0.705556 h -1.41111 -1.41111 v 0.705555 0.705556 h -2.11667 -2.11667 v 0.705555 0.705556 h -1.41111 -1.41111 v 0.705555 0.705556 h -1.41111 -1.41111 v 0.705555 0.705556 h -1.41111 -1.41111 v 0.705555 0.705556 h -0.70556 -0.70555 v 0.705555 0.705556 h -1.41111 -1.41112 v 0.705555 0.705556 h -1.41111 -1.41111 v 0.705555 0.705556 h -0.70555 -0.70556 v 0.705555 0.705556 h -0.70555 -0.70556 v 1.411111 1.411111 h 1.05833 1.05834 v 0.705556 0.705555 h 4.58611 4.58611 v -0.705555 -0.705556 h 4.23333 4.23333 V 81.906355 81.2008 h 3.52778 3.52778 v -0.705556 -0.705555 h 2.11667 2.11666 v -0.705556 -0.705555 h 2.11667 2.11667 v -0.705556 -0.705555 h 0.70555 0.70556 v -0.705556 -0.705555 h 1.41111 1.41111 V 74.8508 74.145245 h 0.70555 0.70556 v -0.705556 -0.705555 h 1.41111 1.41111 v -0.705556 -0.705555 h 0.70556 0.70555 v -1.411111 -1.411111 h -2.11666 -2.11667 v 0.705555 0.705556 h -2.11667 -2.11666 v 0.705555 0.705556 h -0.70556 -0.70555 v 0.705555 0.705556 h -2.11667 -2.11667 v -0.705556 -0.705555 h 0.70556 0.70555 v -0.705556 -0.705555 h 1.41111 1.41112 v -0.705556 -0.705555 h 1.41111 1.41111 V 67.795245 67.08969 h 1.41111 1.41111 v -0.705556 -0.705556 h 3.52778 3.52777 v 0.705556 0.705556 h 0.70556 0.70556 v 2.116666 2.116667 h -0.70556 -0.70556 v 0.705555 0.705556 h -0.70555 -0.70556 v 0.705555 0.705556 h -1.41111 -1.41111 v 0.705555 0.705556 h -0.70555 -0.70556 v 0.705555 0.705556 h -0.70555 -0.70556 v 0.705555 0.705556 h -1.41111 -1.41111 v 0.705555 0.705556 h -1.41111 -1.41111 v 0.705555 0.705556 h -1.41112 -1.41111 v 0.705555 0.705556 h -2.11666 -2.11667 v 0.705556 0.705555 h -2.82222 -2.82222 v 0.705556 0.705555 h -4.23334 -4.23333 v 0.705556 0.705555 h -4.23333 -4.23334 v 6.35 6.349999 h 16.58056 16.58055 z m -7.76111,-7.055555 v -0.705556 h -1.41111 -1.41111 v -0.705555 -0.705556 h 7.76111 7.76111 v -0.705555 -0.705556 h 2.82222 2.82223 V 87.5508 86.845244 h 1.41111 1.41111 v -0.705555 -0.705556 h 1.41111 1.41111 v -0.705555 -0.705556 h 0.70556 0.70555 v -0.705555 -0.705556 h 0.70556 0.70555 V 81.906355 81.2008 h 0.70556 0.70555 v -0.705556 -0.705555 h 0.70556 0.70555 v -1.411111 -1.411111 h -0.70555 -0.70556 v -0.705556 -0.705555 h -0.70555 -0.70556 V 74.8508 74.145245 h -1.41111 -1.41111 v -0.705556 -0.705555 h -0.70556 -0.70555 v -0.705556 -0.705555 h 2.11667 2.11666 v 0.705555 0.705556 h 2.11667 2.11666 v 0.705555 0.705556 h 1.41112 1.41111 v 0.705555 0.705556 h 1.41111 1.41111 v 0.705555 0.705556 h 1.41111 1.41111 v 0.705555 0.705556 h 0.70556 0.70555 v 0.705555 0.705556 h 0.70556 0.70555 v 1.411111 1.411111 h -2.11666 -2.11667 V 81.906355 81.2008 h -1.41111 -1.41111 v -0.705556 -0.705555 h -0.70556 -0.70555 v 0.705555 0.705556 h -0.70556 -0.70555 v 1.411111 1.411111 h -0.70556 -0.70556 v 0.705556 0.705555 h -0.70555 -0.70556 v 0.705556 0.705555 h -1.41111 -1.41111 v 0.705556 0.705555 h -1.41111 -1.41111 v 0.705556 0.705555 h -1.41111 -1.41111 v 0.705556 0.705555 h -2.82222 -2.82223 v 0.705556 0.705555 h -7.76111 -7.76111 z M 229.7591,83.317467 V 81.2008 h 0.70556 0.70556 v -1.411111 -1.411111 h 1.41111 1.41111 v -0.705556 -0.705555 h 1.41111 1.41111 v -0.705556 -0.705555 h 4.93889 4.93889 v 0.705555 0.705556 h 0.70555 0.70556 v 1.411111 1.411111 h -1.41111 -1.41111 v -0.705556 -0.705555 h -2.82223 -2.82222 v 0.705555 0.705556 h -1.41111 -1.41111 v 0.705555 0.705556 h -1.41111 -1.41111 v 0.705555 0.705556 h -0.70556 -0.70555 v 1.411111 1.411111 h -1.41111 -1.41112 z M 200.12577,62.150801 v -0.705556 h -0.70555 -0.70556 v -2.116666 -2.116667 h -3.52777 -3.52778 V 55.800801 54.38969 h 1.41111 1.41111 v -2.116666 -2.116667 h 0.70556 0.70555 v -1.411111 -1.411111 h 0.70556 0.70555 v -1.411111 -1.411111 h 0.70556 0.70555 v -0.705556 -0.705555 h 1.41111 1.41111 v 1.411111 1.411111 h -0.70555 -0.70556 v 2.116666 2.116667 h -0.70555 -0.70556 v 2.116667 2.116666 h 8.46667 8.46666 v 0.705556 0.705555 h -2.11666 -2.11667 v 0.705556 0.705555 h -2.11666 -2.11667 v 1.411111 1.411111 h -0.70556 -0.70555 v 1.411111 1.411111 H 202.948 200.12577 Z M 164.848,60.73969 v -0.705556 h -0.70556 -0.70555 v -2.116666 -2.116667 h -2.82222 -2.82223 V 54.38969 52.978579 h 2.11667 2.11667 v -2.116666 -2.116667 h 0.70555 0.70556 v -1.411111 -1.411111 h 0.70555 0.70556 v -0.705556 -0.705555 h 1.41111 1.41111 v 1.411111 1.411111 h -0.70555 -0.70556 v 2.822222 2.822222 h 6.35 6.35 v 0.705556 0.705555 h -1.41111 -1.41111 v 0.705556 0.705555 h -2.11667 -2.11667 v 1.411111 1.411111 h -0.70555 -0.70556 v 0.705556 0.705555 h -1.41111 -1.41111 v 0.705556 0.705555 h -1.41111 -1.41111 z"
         style="fill:#000000;stroke-width:2.66666627" />
    </g>
  </g>
</svg>
